G04 #@! TF.GenerationSoftware,KiCad,Pcbnew,5.0.2+dfsg1-1~bpo9+1*
G04 #@! TF.CreationDate,2019-05-24T18:29:25+02:00*
G04 #@! TF.ProjectId,frontpanel,66726f6e-7470-4616-9e65-6c2e6b696361,rev?*
G04 #@! TF.SameCoordinates,Original*
G04 #@! TF.FileFunction,Legend,Bot*
G04 #@! TF.FilePolarity,Positive*
%FSLAX46Y46*%
G04 Gerber Fmt 4.6, Leading zero omitted, Abs format (unit mm)*
G04 Created by KiCad (PCBNEW 5.0.2+dfsg1-1~bpo9+1) date Fri 24 May 2019 06:29:25 PM CEST*
%MOMM*%
%LPD*%
G01*
G04 APERTURE LIST*
%ADD10C,0.150000*%
%ADD11C,0.250000*%
%ADD12C,0.300000*%
%ADD13C,0.500000*%
G04 APERTURE END LIST*
D10*
G36*
X141732000Y-122936000D02*
X139700000Y-122936000D01*
X139700000Y-111760000D01*
X152400000Y-111760000D01*
X152400000Y-122936000D01*
X141732000Y-122936000D01*
G37*
X141732000Y-122936000D02*
X139700000Y-122936000D01*
X139700000Y-111760000D01*
X152400000Y-111760000D01*
X152400000Y-122936000D01*
X141732000Y-122936000D01*
D11*
X121515047Y-38266666D02*
X121038857Y-38266666D01*
X121610285Y-38552380D02*
X121276952Y-37552380D01*
X120943619Y-38552380D01*
X120038857Y-38457142D02*
X120086476Y-38504761D01*
X120229333Y-38552380D01*
X120324571Y-38552380D01*
X120467428Y-38504761D01*
X120562666Y-38409523D01*
X120610285Y-38314285D01*
X120657904Y-38123809D01*
X120657904Y-37980952D01*
X120610285Y-37790476D01*
X120562666Y-37695238D01*
X120467428Y-37600000D01*
X120324571Y-37552380D01*
X120229333Y-37552380D01*
X120086476Y-37600000D01*
X120038857Y-37647619D01*
X119753142Y-37552380D02*
X119181714Y-37552380D01*
X119467428Y-38552380D02*
X119467428Y-37552380D01*
D12*
X137596000Y-40890000D02*
X136881714Y-40890000D01*
X137738857Y-41318571D02*
X137238857Y-39818571D01*
X136738857Y-41318571D01*
X135381714Y-41318571D02*
X135881714Y-40604285D01*
X136238857Y-41318571D02*
X136238857Y-39818571D01*
X135667428Y-39818571D01*
X135524571Y-39890000D01*
X135453142Y-39961428D01*
X135381714Y-40104285D01*
X135381714Y-40318571D01*
X135453142Y-40461428D01*
X135524571Y-40532857D01*
X135667428Y-40604285D01*
X136238857Y-40604285D01*
X134738857Y-41318571D02*
X134738857Y-39818571D01*
X134167428Y-39818571D01*
X134024571Y-39890000D01*
X133953142Y-39961428D01*
X133881714Y-40104285D01*
X133881714Y-40318571D01*
X133953142Y-40461428D01*
X134024571Y-40532857D01*
X134167428Y-40604285D01*
X134738857Y-40604285D01*
X131381714Y-41318571D02*
X132096000Y-41318571D01*
X132096000Y-39818571D01*
X130881714Y-40532857D02*
X130381714Y-40532857D01*
X130167428Y-41318571D02*
X130881714Y-41318571D01*
X130881714Y-39818571D01*
X130167428Y-39818571D01*
X129524571Y-41318571D02*
X129524571Y-39818571D01*
X128667428Y-41318571D01*
X128667428Y-39818571D01*
D13*
X141115809Y-138711952D02*
X139687238Y-138711952D01*
X140401523Y-141211952D02*
X140401523Y-138711952D01*
X138377714Y-138711952D02*
X137901523Y-138711952D01*
X137663428Y-138831000D01*
X137425333Y-139069095D01*
X137306285Y-139545285D01*
X137306285Y-140378619D01*
X137425333Y-140854809D01*
X137663428Y-141092904D01*
X137901523Y-141211952D01*
X138377714Y-141211952D01*
X138615809Y-141092904D01*
X138853904Y-140854809D01*
X138972952Y-140378619D01*
X138972952Y-139545285D01*
X138853904Y-139069095D01*
X138615809Y-138831000D01*
X138377714Y-138711952D01*
X136234857Y-141211952D02*
X136234857Y-138711952D01*
X135401523Y-140497666D01*
X134568190Y-138711952D01*
X134568190Y-141211952D01*
X133496761Y-140497666D02*
X132306285Y-140497666D01*
X133734857Y-141211952D02*
X132901523Y-138711952D01*
X132068190Y-141211952D01*
X129806285Y-141211952D02*
X130639619Y-140021476D01*
X131234857Y-141211952D02*
X131234857Y-138711952D01*
X130282476Y-138711952D01*
X130044380Y-138831000D01*
X129925333Y-138950047D01*
X129806285Y-139188142D01*
X129806285Y-139545285D01*
X129925333Y-139783380D01*
X130044380Y-139902428D01*
X130282476Y-140021476D01*
X131234857Y-140021476D01*
X128734857Y-138711952D02*
X128734857Y-140735761D01*
X128615809Y-140973857D01*
X128496761Y-141092904D01*
X128258666Y-141211952D01*
X127782476Y-141211952D01*
X127544380Y-141092904D01*
X127425333Y-140973857D01*
X127306285Y-140735761D01*
X127306285Y-138711952D01*
X126234857Y-141092904D02*
X125877714Y-141211952D01*
X125282476Y-141211952D01*
X125044380Y-141092904D01*
X124925333Y-140973857D01*
X124806285Y-140735761D01*
X124806285Y-140497666D01*
X124925333Y-140259571D01*
X125044380Y-140140523D01*
X125282476Y-140021476D01*
X125758666Y-139902428D01*
X125996761Y-139783380D01*
X126115809Y-139664333D01*
X126234857Y-139426238D01*
X126234857Y-139188142D01*
X126115809Y-138950047D01*
X125996761Y-138831000D01*
X125758666Y-138711952D01*
X125163428Y-138711952D01*
X124806285Y-138831000D01*
X139556285Y-18883142D02*
X139556285Y-15883142D01*
X138556285Y-18026000D01*
X137556285Y-15883142D01*
X137556285Y-18883142D01*
X136127714Y-18883142D02*
X136127714Y-16883142D01*
X136127714Y-15883142D02*
X136270571Y-16026000D01*
X136127714Y-16168857D01*
X135984857Y-16026000D01*
X136127714Y-15883142D01*
X136127714Y-16168857D01*
X133413428Y-18883142D02*
X133413428Y-17311714D01*
X133556285Y-17026000D01*
X133842000Y-16883142D01*
X134413428Y-16883142D01*
X134699142Y-17026000D01*
X133413428Y-18740285D02*
X133699142Y-18883142D01*
X134413428Y-18883142D01*
X134699142Y-18740285D01*
X134842000Y-18454571D01*
X134842000Y-18168857D01*
X134699142Y-17883142D01*
X134413428Y-17740285D01*
X133699142Y-17740285D01*
X133413428Y-17597428D01*
X131984857Y-18883142D02*
X131984857Y-16883142D01*
X131984857Y-17454571D02*
X131842000Y-17168857D01*
X131699142Y-17026000D01*
X131413428Y-16883142D01*
X131127714Y-16883142D01*
X130127714Y-16883142D02*
X130127714Y-19883142D01*
X130127714Y-17026000D02*
X129842000Y-16883142D01*
X129270571Y-16883142D01*
X128984857Y-17026000D01*
X128842000Y-17168857D01*
X128699142Y-17454571D01*
X128699142Y-18311714D01*
X128842000Y-18597428D01*
X128984857Y-18740285D01*
X129270571Y-18883142D01*
X129842000Y-18883142D01*
X130127714Y-18740285D01*
X127413428Y-18883142D02*
X127413428Y-15883142D01*
X126127714Y-18883142D02*
X126127714Y-17311714D01*
X126270571Y-17026000D01*
X126556285Y-16883142D01*
X126984857Y-16883142D01*
X127270571Y-17026000D01*
X127413428Y-17168857D01*
D12*
X122610285Y-108470000D02*
X122753142Y-108398571D01*
X122967428Y-108398571D01*
X123181714Y-108470000D01*
X123324571Y-108612857D01*
X123396000Y-108755714D01*
X123467428Y-109041428D01*
X123467428Y-109255714D01*
X123396000Y-109541428D01*
X123324571Y-109684285D01*
X123181714Y-109827142D01*
X122967428Y-109898571D01*
X122824571Y-109898571D01*
X122610285Y-109827142D01*
X122538857Y-109755714D01*
X122538857Y-109255714D01*
X122824571Y-109255714D01*
X121967428Y-109470000D02*
X121253142Y-109470000D01*
X122110285Y-109898571D02*
X121610285Y-108398571D01*
X121110285Y-109898571D01*
X120824571Y-108398571D02*
X119967428Y-108398571D01*
X120396000Y-109898571D02*
X120396000Y-108398571D01*
X119467428Y-109112857D02*
X118967428Y-109112857D01*
X118753142Y-109898571D02*
X119467428Y-109898571D01*
X119467428Y-108398571D01*
X118753142Y-108398571D01*
X118181714Y-108541428D02*
X118110285Y-108470000D01*
X117967428Y-108398571D01*
X117610285Y-108398571D01*
X117467428Y-108470000D01*
X117396000Y-108541428D01*
X117324571Y-108684285D01*
X117324571Y-108827142D01*
X117396000Y-109041428D01*
X118253142Y-109898571D01*
X117324571Y-109898571D01*
X121288857Y-94515714D02*
X121360285Y-94587142D01*
X121574571Y-94658571D01*
X121717428Y-94658571D01*
X121931714Y-94587142D01*
X122074571Y-94444285D01*
X122146000Y-94301428D01*
X122217428Y-94015714D01*
X122217428Y-93801428D01*
X122146000Y-93515714D01*
X122074571Y-93372857D01*
X121931714Y-93230000D01*
X121717428Y-93158571D01*
X121574571Y-93158571D01*
X121360285Y-93230000D01*
X121288857Y-93301428D01*
X120860285Y-93158571D02*
X120360285Y-94658571D01*
X119860285Y-93158571D01*
X119431714Y-93301428D02*
X119360285Y-93230000D01*
X119217428Y-93158571D01*
X118860285Y-93158571D01*
X118717428Y-93230000D01*
X118646000Y-93301428D01*
X118574571Y-93444285D01*
X118574571Y-93587142D01*
X118646000Y-93801428D01*
X119503142Y-94658571D01*
X118574571Y-94658571D01*
X122610285Y-77990000D02*
X122753142Y-77918571D01*
X122967428Y-77918571D01*
X123181714Y-77990000D01*
X123324571Y-78132857D01*
X123396000Y-78275714D01*
X123467428Y-78561428D01*
X123467428Y-78775714D01*
X123396000Y-79061428D01*
X123324571Y-79204285D01*
X123181714Y-79347142D01*
X122967428Y-79418571D01*
X122824571Y-79418571D01*
X122610285Y-79347142D01*
X122538857Y-79275714D01*
X122538857Y-78775714D01*
X122824571Y-78775714D01*
X121967428Y-78990000D02*
X121253142Y-78990000D01*
X122110285Y-79418571D02*
X121610285Y-77918571D01*
X121110285Y-79418571D01*
X120824571Y-77918571D02*
X119967428Y-77918571D01*
X120396000Y-79418571D02*
X120396000Y-77918571D01*
X119467428Y-78632857D02*
X118967428Y-78632857D01*
X118753142Y-79418571D02*
X119467428Y-79418571D01*
X119467428Y-77918571D01*
X118753142Y-77918571D01*
X117324571Y-79418571D02*
X118181714Y-79418571D01*
X117753142Y-79418571D02*
X117753142Y-77918571D01*
X117896000Y-78132857D01*
X118038857Y-78275714D01*
X118181714Y-78347142D01*
X121288857Y-64035714D02*
X121360285Y-64107142D01*
X121574571Y-64178571D01*
X121717428Y-64178571D01*
X121931714Y-64107142D01*
X122074571Y-63964285D01*
X122146000Y-63821428D01*
X122217428Y-63535714D01*
X122217428Y-63321428D01*
X122146000Y-63035714D01*
X122074571Y-62892857D01*
X121931714Y-62750000D01*
X121717428Y-62678571D01*
X121574571Y-62678571D01*
X121360285Y-62750000D01*
X121288857Y-62821428D01*
X120860285Y-62678571D02*
X120360285Y-64178571D01*
X119860285Y-62678571D01*
X118574571Y-64178571D02*
X119431714Y-64178571D01*
X119003142Y-64178571D02*
X119003142Y-62678571D01*
X119146000Y-62892857D01*
X119288857Y-63035714D01*
X119431714Y-63107142D01*
X134203142Y-94658571D02*
X134203142Y-93158571D01*
X133631714Y-93158571D01*
X133488857Y-93230000D01*
X133417428Y-93301428D01*
X133346000Y-93444285D01*
X133346000Y-93658571D01*
X133417428Y-93801428D01*
X133488857Y-93872857D01*
X133631714Y-93944285D01*
X134203142Y-93944285D01*
X132060285Y-93158571D02*
X132346000Y-93158571D01*
X132488857Y-93230000D01*
X132560285Y-93301428D01*
X132703142Y-93515714D01*
X132774571Y-93801428D01*
X132774571Y-94372857D01*
X132703142Y-94515714D01*
X132631714Y-94587142D01*
X132488857Y-94658571D01*
X132203142Y-94658571D01*
X132060285Y-94587142D01*
X131988857Y-94515714D01*
X131917428Y-94372857D01*
X131917428Y-94015714D01*
X131988857Y-93872857D01*
X132060285Y-93801428D01*
X132203142Y-93730000D01*
X132488857Y-93730000D01*
X132631714Y-93801428D01*
X132703142Y-93872857D01*
X132774571Y-94015714D01*
X146903142Y-94658571D02*
X146903142Y-93158571D01*
X146331714Y-93158571D01*
X146188857Y-93230000D01*
X146117428Y-93301428D01*
X146046000Y-93444285D01*
X146046000Y-93658571D01*
X146117428Y-93801428D01*
X146188857Y-93872857D01*
X146331714Y-93944285D01*
X146903142Y-93944285D01*
X144688857Y-93158571D02*
X145403142Y-93158571D01*
X145474571Y-93872857D01*
X145403142Y-93801428D01*
X145260285Y-93730000D01*
X144903142Y-93730000D01*
X144760285Y-93801428D01*
X144688857Y-93872857D01*
X144617428Y-94015714D01*
X144617428Y-94372857D01*
X144688857Y-94515714D01*
X144760285Y-94587142D01*
X144903142Y-94658571D01*
X145260285Y-94658571D01*
X145403142Y-94587142D01*
X145474571Y-94515714D01*
X134203142Y-79418571D02*
X134203142Y-77918571D01*
X133631714Y-77918571D01*
X133488857Y-77990000D01*
X133417428Y-78061428D01*
X133346000Y-78204285D01*
X133346000Y-78418571D01*
X133417428Y-78561428D01*
X133488857Y-78632857D01*
X133631714Y-78704285D01*
X134203142Y-78704285D01*
X132060285Y-78418571D02*
X132060285Y-79418571D01*
X132417428Y-77847142D02*
X132774571Y-78918571D01*
X131846000Y-78918571D01*
X146903142Y-79418571D02*
X146903142Y-77918571D01*
X146331714Y-77918571D01*
X146188857Y-77990000D01*
X146117428Y-78061428D01*
X146046000Y-78204285D01*
X146046000Y-78418571D01*
X146117428Y-78561428D01*
X146188857Y-78632857D01*
X146331714Y-78704285D01*
X146903142Y-78704285D01*
X145546000Y-77918571D02*
X144617428Y-77918571D01*
X145117428Y-78490000D01*
X144903142Y-78490000D01*
X144760285Y-78561428D01*
X144688857Y-78632857D01*
X144617428Y-78775714D01*
X144617428Y-79132857D01*
X144688857Y-79275714D01*
X144760285Y-79347142D01*
X144903142Y-79418571D01*
X145331714Y-79418571D01*
X145474571Y-79347142D01*
X145546000Y-79275714D01*
X134203142Y-64178571D02*
X134203142Y-62678571D01*
X133631714Y-62678571D01*
X133488857Y-62750000D01*
X133417428Y-62821428D01*
X133346000Y-62964285D01*
X133346000Y-63178571D01*
X133417428Y-63321428D01*
X133488857Y-63392857D01*
X133631714Y-63464285D01*
X134203142Y-63464285D01*
X132774571Y-62821428D02*
X132703142Y-62750000D01*
X132560285Y-62678571D01*
X132203142Y-62678571D01*
X132060285Y-62750000D01*
X131988857Y-62821428D01*
X131917428Y-62964285D01*
X131917428Y-63107142D01*
X131988857Y-63321428D01*
X132846000Y-64178571D01*
X131917428Y-64178571D01*
X146903142Y-64178571D02*
X146903142Y-62678571D01*
X146331714Y-62678571D01*
X146188857Y-62750000D01*
X146117428Y-62821428D01*
X146046000Y-62964285D01*
X146046000Y-63178571D01*
X146117428Y-63321428D01*
X146188857Y-63392857D01*
X146331714Y-63464285D01*
X146903142Y-63464285D01*
X144617428Y-64178571D02*
X145474571Y-64178571D01*
X145046000Y-64178571D02*
X145046000Y-62678571D01*
X145188857Y-62892857D01*
X145331714Y-63035714D01*
X145474571Y-63107142D01*
X134203142Y-109898571D02*
X134203142Y-108398571D01*
X133631714Y-108398571D01*
X133488857Y-108470000D01*
X133417428Y-108541428D01*
X133346000Y-108684285D01*
X133346000Y-108898571D01*
X133417428Y-109041428D01*
X133488857Y-109112857D01*
X133631714Y-109184285D01*
X134203142Y-109184285D01*
X132488857Y-109041428D02*
X132631714Y-108970000D01*
X132703142Y-108898571D01*
X132774571Y-108755714D01*
X132774571Y-108684285D01*
X132703142Y-108541428D01*
X132631714Y-108470000D01*
X132488857Y-108398571D01*
X132203142Y-108398571D01*
X132060285Y-108470000D01*
X131988857Y-108541428D01*
X131917428Y-108684285D01*
X131917428Y-108755714D01*
X131988857Y-108898571D01*
X132060285Y-108970000D01*
X132203142Y-109041428D01*
X132488857Y-109041428D01*
X132631714Y-109112857D01*
X132703142Y-109184285D01*
X132774571Y-109327142D01*
X132774571Y-109612857D01*
X132703142Y-109755714D01*
X132631714Y-109827142D01*
X132488857Y-109898571D01*
X132203142Y-109898571D01*
X132060285Y-109827142D01*
X131988857Y-109755714D01*
X131917428Y-109612857D01*
X131917428Y-109327142D01*
X131988857Y-109184285D01*
X132060285Y-109112857D01*
X132203142Y-109041428D01*
X146903142Y-109898571D02*
X146903142Y-108398571D01*
X146331714Y-108398571D01*
X146188857Y-108470000D01*
X146117428Y-108541428D01*
X146046000Y-108684285D01*
X146046000Y-108898571D01*
X146117428Y-109041428D01*
X146188857Y-109112857D01*
X146331714Y-109184285D01*
X146903142Y-109184285D01*
X145546000Y-108398571D02*
X144546000Y-108398571D01*
X145188857Y-109898571D01*
X121396000Y-124995714D02*
X121467428Y-125067142D01*
X121681714Y-125138571D01*
X121824571Y-125138571D01*
X122038857Y-125067142D01*
X122181714Y-124924285D01*
X122253142Y-124781428D01*
X122324571Y-124495714D01*
X122324571Y-124281428D01*
X122253142Y-123995714D01*
X122181714Y-123852857D01*
X122038857Y-123710000D01*
X121824571Y-123638571D01*
X121681714Y-123638571D01*
X121467428Y-123710000D01*
X121396000Y-123781428D01*
X119896000Y-124995714D02*
X119967428Y-125067142D01*
X120181714Y-125138571D01*
X120324571Y-125138571D01*
X120538857Y-125067142D01*
X120681714Y-124924285D01*
X120753142Y-124781428D01*
X120824571Y-124495714D01*
X120824571Y-124281428D01*
X120753142Y-123995714D01*
X120681714Y-123852857D01*
X120538857Y-123710000D01*
X120324571Y-123638571D01*
X120181714Y-123638571D01*
X119967428Y-123710000D01*
X119896000Y-123781428D01*
X119324571Y-123781428D02*
X119253142Y-123710000D01*
X119110285Y-123638571D01*
X118753142Y-123638571D01*
X118610285Y-123710000D01*
X118538857Y-123781428D01*
X118467428Y-123924285D01*
X118467428Y-124067142D01*
X118538857Y-124281428D01*
X119396000Y-125138571D01*
X118467428Y-125138571D01*
X134096000Y-124995714D02*
X134167428Y-125067142D01*
X134381714Y-125138571D01*
X134524571Y-125138571D01*
X134738857Y-125067142D01*
X134881714Y-124924285D01*
X134953142Y-124781428D01*
X135024571Y-124495714D01*
X135024571Y-124281428D01*
X134953142Y-123995714D01*
X134881714Y-123852857D01*
X134738857Y-123710000D01*
X134524571Y-123638571D01*
X134381714Y-123638571D01*
X134167428Y-123710000D01*
X134096000Y-123781428D01*
X132596000Y-124995714D02*
X132667428Y-125067142D01*
X132881714Y-125138571D01*
X133024571Y-125138571D01*
X133238857Y-125067142D01*
X133381714Y-124924285D01*
X133453142Y-124781428D01*
X133524571Y-124495714D01*
X133524571Y-124281428D01*
X133453142Y-123995714D01*
X133381714Y-123852857D01*
X133238857Y-123710000D01*
X133024571Y-123638571D01*
X132881714Y-123638571D01*
X132667428Y-123710000D01*
X132596000Y-123781428D01*
X131167428Y-125138571D02*
X132024571Y-125138571D01*
X131596000Y-125138571D02*
X131596000Y-123638571D01*
X131738857Y-123852857D01*
X131881714Y-123995714D01*
X132024571Y-124067142D01*
X149474571Y-125138571D02*
X149474571Y-123638571D01*
X148974571Y-124710000D01*
X148474571Y-123638571D01*
X148474571Y-125138571D01*
X147760285Y-125138571D02*
X147760285Y-123638571D01*
X147046000Y-125138571D02*
X147046000Y-123638571D01*
X146688857Y-123638571D01*
X146474571Y-123710000D01*
X146331714Y-123852857D01*
X146260285Y-123995714D01*
X146188857Y-124281428D01*
X146188857Y-124495714D01*
X146260285Y-124781428D01*
X146331714Y-124924285D01*
X146474571Y-125067142D01*
X146688857Y-125138571D01*
X147046000Y-125138571D01*
X145546000Y-125138571D02*
X145546000Y-123638571D01*
X143688857Y-125138571D02*
X143688857Y-123638571D01*
X142974571Y-125138571D02*
X142974571Y-123638571D01*
X142117428Y-125138571D01*
X142117428Y-123638571D01*
M02*
