M48
;DRILL file {KiCad 5.0.2+dfsg1-1~bpo9+1} date Sat 25 May 2019 12:57:45 AM CEST
;FORMAT={-:-/ absolute / inch / decimal}
FMAT,2
INCH,TZ
T1C0.0157
T2C0.0315
T3C0.0354
T4C0.0394
T5C0.0400
T6C0.0429
T7C0.0433
T8C0.0630
T9C0.0709
%
G90
G05
T1
X1.28Y-1.84
X1.45Y-3.08
X1.48Y-3.01
X1.5Y-3.14
X1.5825Y-3.1309
X1.5954Y-1.9358
X1.6063Y-2.822
X1.61Y-1.82
X1.7062Y-2.359
X1.74Y-2.38
X1.8Y-2.43
X1.8085Y-4.77
X1.81Y-2.1363
X1.89Y-4.77
X1.95Y-1.58
X2.12Y-4.4623
X2.16Y-4.61
X2.29Y-1.89
X3.26Y-1.5
X3.27Y-1.59
X3.37Y-2.35
X3.98Y-2.99
T2
X1.49Y-4.48
X1.49Y-4.78
X3.36Y-2.54
X3.36Y-2.84
X3.27Y-1.43
X3.27Y-1.73
X1.63Y-4.48
X1.63Y-4.78
X1.73Y-4.48
X1.73Y-4.78
X3.36Y-3.14
X3.36Y-3.44
X3.86Y-4.34
X3.86Y-4.64
X3.36Y-2.14
X3.36Y-2.44
X2.17Y-1.4391
X2.17Y-1.5391
X2.17Y-1.6391
X2.17Y-1.7391
X2.17Y-1.8391
X2.17Y-1.9391
X2.17Y-2.0391
X2.47Y-1.4391
X2.47Y-1.5391
X2.47Y-1.6391
X2.47Y-1.7391
X2.47Y-1.8391
X2.47Y-1.9391
X2.47Y-2.0391
X1.36Y-4.48
X1.36Y-4.78
X1.73Y-2.94
X1.73Y-3.24
X1.6Y-2.94
X1.6Y-3.24
X2.02Y-2.22
X2.02Y-2.52
X2.12Y-2.22
X2.12Y-2.52
X2.22Y-2.22
X2.22Y-2.52
X2.32Y-2.22
X2.32Y-2.52
X2.42Y-2.22
X2.42Y-2.52
X2.52Y-2.22
X2.52Y-2.52
X2.62Y-2.22
X2.62Y-2.52
X2.72Y-2.22
X2.72Y-2.52
X1.44Y-3.53
X1.44Y-3.63
X1.44Y-3.73
X1.44Y-3.83
X1.74Y-3.53
X1.74Y-3.63
X1.74Y-3.73
X1.74Y-3.83
X3.86Y-2.54
X3.86Y-2.84
X2.4245Y-4.1723
X2.4245Y-4.2723
X2.4245Y-4.3723
X2.4245Y-4.4723
X2.4245Y-4.5723
X2.4245Y-4.6723
X2.4245Y-4.7723
X2.7245Y-4.1723
X2.7245Y-4.2723
X2.7245Y-4.3723
X2.7245Y-4.4723
X2.7245Y-4.5723
X2.7245Y-4.6723
X2.7245Y-4.7723
X3.86Y-3.94
X3.86Y-4.24
X1.29Y-2.44
X1.29Y-2.54
X1.29Y-2.64
X1.29Y-2.74
X1.29Y-2.84
X1.29Y-2.94
X1.29Y-3.04
X1.29Y-3.14
X1.29Y-3.24
X1.29Y-3.34
X1.29Y-3.44
X1.29Y-3.54
X1.29Y-3.64
X1.29Y-3.74
X1.29Y-3.84
X1.89Y-2.44
X1.89Y-2.54
X1.89Y-2.64
X1.89Y-2.74
X1.89Y-2.84
X1.89Y-2.94
X1.89Y-3.04
X1.89Y-3.14
X1.89Y-3.24
X1.89Y-3.34
X1.89Y-3.44
X1.89Y-3.54
X1.89Y-3.64
X1.89Y-3.74
X1.89Y-3.84
X3.86Y-3.52
X3.86Y-3.82
X2.0145Y-4.1723
X2.0145Y-4.2723
X2.0145Y-4.3723
X2.0145Y-4.4723
X2.0145Y-4.5723
X2.0145Y-4.6723
X2.0145Y-4.7723
X2.3145Y-4.1723
X2.3145Y-4.2723
X2.3145Y-4.3723
X2.3145Y-4.4723
X2.3145Y-4.5723
X2.3145Y-4.6723
X2.3145Y-4.7723
X1.53Y-1.44
X1.53Y-1.54
X1.53Y-1.64
X1.53Y-1.74
X1.53Y-1.84
X1.53Y-1.94
X1.53Y-2.04
X1.83Y-1.44
X1.83Y-1.54
X1.83Y-1.64
X1.83Y-1.74
X1.83Y-1.84
X1.83Y-1.94
X1.83Y-2.04
X3.36Y-3.54
X3.36Y-3.84
X3.86Y-2.14
X3.86Y-2.44
X3.86Y-3.12
X3.86Y-3.42
X3.36Y-4.34
X3.36Y-4.64
X1.39Y-4.35
X1.69Y-4.35
X3.36Y-3.94
X3.36Y-4.24
T3
X3.05Y-1.39
X3.15Y-1.39
T4
X3.5031Y-1.65
X3.6016Y-1.65
X3.7Y-1.65
X1.29Y-1.45
X1.29Y-1.55
X1.29Y-1.65
X1.29Y-1.75
X1.66Y-4.93
X1.76Y-4.93
X1.86Y-4.93
X1.96Y-4.93
X2.06Y-4.93
X2.16Y-4.93
X2.26Y-4.93
X2.36Y-4.93
X2.41Y-1.29
X2.51Y-1.29
X2.61Y-1.29
X2.71Y-1.29
X4.01Y-1.29
X4.11Y-1.29
X4.21Y-1.29
X4.31Y-1.29
X1.3Y-4.22
X1.4Y-4.22
X1.29Y-1.29
X1.39Y-1.29
X1.49Y-1.29
X1.59Y-1.29
X2.89Y-1.29
X2.99Y-1.29
X3.09Y-1.29
X3.19Y-1.29
X3.26Y-4.93
X3.36Y-4.93
X3.46Y-4.93
X3.56Y-4.93
X3.66Y-4.93
X3.76Y-4.93
X3.86Y-4.93
X3.96Y-4.93
X2.89Y-1.45
X2.89Y-1.55
X2.89Y-1.65
X2.89Y-1.75
T5
X2.18Y-3.72
X2.18Y-3.82
X2.28Y-3.72
X2.28Y-3.82
X2.38Y-3.72
X2.38Y-3.82
X2.48Y-3.72
X2.48Y-3.82
X2.58Y-3.72
X2.58Y-3.82
T6
X2.46Y-3.4
X2.56Y-3.4
X2.66Y-3.4
X2.58Y-1.74
X2.58Y-1.84
X2.58Y-1.94
X2.0645Y-4.04
X2.1645Y-4.04
X2.2645Y-4.04
X2.07Y-3.4
X2.17Y-3.4
X2.27Y-3.4
X1.94Y-1.74
X1.94Y-1.84
X1.94Y-1.94
X1.42Y-1.74
X1.42Y-1.84
X1.42Y-1.94
X2.02Y-2.63
X2.12Y-2.63
X2.22Y-2.63
X2.48Y-4.04
X2.58Y-4.04
X2.68Y-4.04
X2.06Y-1.74
X2.06Y-1.84
X2.06Y-1.94
T7
X2.01Y-2.91
X2.01Y-3.01
X2.01Y-3.11
T8
X3.6Y-3.16
X3.1Y-3.16
X3.6Y-1.96
X4.1Y-4.36
X3.6Y-4.36
X3.6Y-2.56
X3.6Y-3.76
X3.1Y-2.56
X3.1Y-4.36
X4.1Y-3.76
X4.1Y-1.96
X3.1Y-1.96
X4.1Y-3.16
X3.1Y-3.76
X4.1Y-2.56
T9
X3.6Y-3.282
X3.6Y-3.6088
X3.1Y-3.282
X3.1Y-3.6088
X3.6Y-2.082
X3.6Y-2.4088
X4.1Y-4.482
X4.1Y-4.8088
X3.6Y-4.482
X3.6Y-4.8088
X3.6Y-2.682
X3.6Y-3.0088
X3.6Y-3.882
X3.6Y-4.2088
X3.1Y-2.682
X3.1Y-3.0088
X3.1Y-4.482
X3.1Y-4.8088
X4.1Y-3.882
X4.1Y-4.2088
X4.1Y-2.082
X4.1Y-2.4088
X3.1Y-2.082
X3.1Y-2.4088
X4.1Y-3.282
X4.1Y-3.6088
X3.1Y-3.882
X3.1Y-4.2088
X4.1Y-2.682
X4.1Y-3.0088
T0
M30
