G04 #@! TF.GenerationSoftware,KiCad,Pcbnew,5.0.2+dfsg1-1~bpo9+1*
G04 #@! TF.CreationDate,2019-05-25T00:57:50+02:00*
G04 #@! TF.ProjectId,midi2cv,6d696469-3263-4762-9e6b-696361645f70,rev?*
G04 #@! TF.SameCoordinates,Original*
G04 #@! TF.FileFunction,Other,ECO1*
%FSLAX46Y46*%
G04 Gerber Fmt 4.6, Leading zero omitted, Abs format (unit mm)*
G04 Created by KiCad (PCBNEW 5.0.2+dfsg1-1~bpo9+1) date Sat 25 May 2019 12:57:50 AM CEST*
%MOMM*%
%LPD*%
G01*
G04 APERTURE LIST*
%ADD10C,0.300000*%
%ADD11C,0.150000*%
G04 APERTURE END LIST*
D10*
X67834285Y-22546571D02*
X68334285Y-24046571D01*
X68834285Y-22546571D01*
X69334285Y-23475142D02*
X70477142Y-23475142D01*
X72048571Y-23903714D02*
X71977142Y-23975142D01*
X71762857Y-24046571D01*
X71620000Y-24046571D01*
X71405714Y-23975142D01*
X71262857Y-23832285D01*
X71191428Y-23689428D01*
X71120000Y-23403714D01*
X71120000Y-23189428D01*
X71191428Y-22903714D01*
X71262857Y-22760857D01*
X71405714Y-22618000D01*
X71620000Y-22546571D01*
X71762857Y-22546571D01*
X71977142Y-22618000D01*
X72048571Y-22689428D01*
X73334285Y-23046571D02*
X73334285Y-24046571D01*
X72691428Y-23046571D02*
X72691428Y-23832285D01*
X72762857Y-23975142D01*
X72905714Y-24046571D01*
X73120000Y-24046571D01*
X73262857Y-23975142D01*
X73334285Y-23903714D01*
X73834285Y-23046571D02*
X74405714Y-23046571D01*
X74048571Y-22546571D02*
X74048571Y-23832285D01*
X74120000Y-23975142D01*
X74262857Y-24046571D01*
X74405714Y-24046571D01*
X67834285Y-133290571D02*
X68334285Y-134790571D01*
X68834285Y-133290571D01*
X69334285Y-134219142D02*
X70477142Y-134219142D01*
X72048571Y-134647714D02*
X71977142Y-134719142D01*
X71762857Y-134790571D01*
X71620000Y-134790571D01*
X71405714Y-134719142D01*
X71262857Y-134576285D01*
X71191428Y-134433428D01*
X71120000Y-134147714D01*
X71120000Y-133933428D01*
X71191428Y-133647714D01*
X71262857Y-133504857D01*
X71405714Y-133362000D01*
X71620000Y-133290571D01*
X71762857Y-133290571D01*
X71977142Y-133362000D01*
X72048571Y-133433428D01*
X73334285Y-133790571D02*
X73334285Y-134790571D01*
X72691428Y-133790571D02*
X72691428Y-134576285D01*
X72762857Y-134719142D01*
X72905714Y-134790571D01*
X73120000Y-134790571D01*
X73262857Y-134719142D01*
X73334285Y-134647714D01*
X73834285Y-133790571D02*
X74405714Y-133790571D01*
X74048571Y-133290571D02*
X74048571Y-134576285D01*
X74120000Y-134719142D01*
X74262857Y-134790571D01*
X74405714Y-134790571D01*
D11*
X71120000Y-25400000D02*
X71120000Y-132080000D01*
M02*
