G04 #@! TF.GenerationSoftware,KiCad,Pcbnew,5.0.2+dfsg1-1~bpo9+1*
G04 #@! TF.CreationDate,2019-05-25T00:57:50+02:00*
G04 #@! TF.ProjectId,midi2cv,6d696469-3263-4762-9e6b-696361645f70,rev?*
G04 #@! TF.SameCoordinates,Original*
G04 #@! TF.FileFunction,Legend,Top*
G04 #@! TF.FilePolarity,Positive*
%FSLAX46Y46*%
G04 Gerber Fmt 4.6, Leading zero omitted, Abs format (unit mm)*
G04 Created by KiCad (PCBNEW 5.0.2+dfsg1-1~bpo9+1) date Sat 25 May 2019 12:57:50 AM CEST*
%MOMM*%
%LPD*%
G01*
G04 APERTURE LIST*
%ADD10C,0.150000*%
%ADD11C,0.300000*%
%ADD12C,0.120000*%
G04 APERTURE END LIST*
D10*
X59642952Y-72350380D02*
X59642952Y-73064666D01*
X59595333Y-73207523D01*
X59500095Y-73302761D01*
X59357238Y-73350380D01*
X59262000Y-73350380D01*
X60595333Y-73350380D02*
X60119142Y-73350380D01*
X60119142Y-72350380D01*
X61500095Y-73255142D02*
X61452476Y-73302761D01*
X61309619Y-73350380D01*
X61214380Y-73350380D01*
X61071523Y-73302761D01*
X60976285Y-73207523D01*
X60928666Y-73112285D01*
X60881047Y-72921809D01*
X60881047Y-72778952D01*
X60928666Y-72588476D01*
X60976285Y-72493238D01*
X61071523Y-72398000D01*
X61214380Y-72350380D01*
X61309619Y-72350380D01*
X61452476Y-72398000D01*
X61500095Y-72445619D01*
X62214380Y-72350380D02*
X62214380Y-73064666D01*
X62166761Y-73207523D01*
X62071523Y-73302761D01*
X61928666Y-73350380D01*
X61833428Y-73350380D01*
X63166761Y-73350380D02*
X62690571Y-73350380D01*
X62690571Y-72350380D01*
X64071523Y-73255142D02*
X64023904Y-73302761D01*
X63881047Y-73350380D01*
X63785809Y-73350380D01*
X63642952Y-73302761D01*
X63547714Y-73207523D01*
X63500095Y-73112285D01*
X63452476Y-72921809D01*
X63452476Y-72778952D01*
X63500095Y-72588476D01*
X63547714Y-72493238D01*
X63642952Y-72398000D01*
X63785809Y-72350380D01*
X63881047Y-72350380D01*
X64023904Y-72398000D01*
X64071523Y-72445619D01*
X64785809Y-72350380D02*
X64785809Y-73064666D01*
X64738190Y-73207523D01*
X64642952Y-73302761D01*
X64500095Y-73350380D01*
X64404857Y-73350380D01*
X65738190Y-73350380D02*
X65262000Y-73350380D01*
X65262000Y-72350380D01*
X66642952Y-73255142D02*
X66595333Y-73302761D01*
X66452476Y-73350380D01*
X66357238Y-73350380D01*
X66214380Y-73302761D01*
X66119142Y-73207523D01*
X66071523Y-73112285D01*
X66023904Y-72921809D01*
X66023904Y-72778952D01*
X66071523Y-72588476D01*
X66119142Y-72493238D01*
X66214380Y-72398000D01*
X66357238Y-72350380D01*
X66452476Y-72350380D01*
X66595333Y-72398000D01*
X66642952Y-72445619D01*
X67357238Y-72350380D02*
X67357238Y-73064666D01*
X67309619Y-73207523D01*
X67214380Y-73302761D01*
X67071523Y-73350380D01*
X66976285Y-73350380D01*
X68309619Y-73350380D02*
X67833428Y-73350380D01*
X67833428Y-72350380D01*
X69214380Y-73255142D02*
X69166761Y-73302761D01*
X69023904Y-73350380D01*
X68928666Y-73350380D01*
X68785809Y-73302761D01*
X68690571Y-73207523D01*
X68642952Y-73112285D01*
X68595333Y-72921809D01*
X68595333Y-72778952D01*
X68642952Y-72588476D01*
X68690571Y-72493238D01*
X68785809Y-72398000D01*
X68928666Y-72350380D01*
X69023904Y-72350380D01*
X69166761Y-72398000D01*
X69214380Y-72445619D01*
D11*
X59043714Y-66991571D02*
X59900857Y-66991571D01*
X59472285Y-68491571D02*
X59472285Y-66991571D01*
X60686571Y-66991571D02*
X60972285Y-66991571D01*
X61115142Y-67063000D01*
X61258000Y-67205857D01*
X61329428Y-67491571D01*
X61329428Y-67991571D01*
X61258000Y-68277285D01*
X61115142Y-68420142D01*
X60972285Y-68491571D01*
X60686571Y-68491571D01*
X60543714Y-68420142D01*
X60400857Y-68277285D01*
X60329428Y-67991571D01*
X60329428Y-67491571D01*
X60400857Y-67205857D01*
X60543714Y-67063000D01*
X60686571Y-66991571D01*
X61972285Y-68491571D02*
X61972285Y-66991571D01*
X62472285Y-68063000D01*
X62972285Y-66991571D01*
X62972285Y-68491571D01*
X63615142Y-68063000D02*
X64329428Y-68063000D01*
X63472285Y-68491571D02*
X63972285Y-66991571D01*
X64472285Y-68491571D01*
X65829428Y-68491571D02*
X65329428Y-67777285D01*
X64972285Y-68491571D02*
X64972285Y-66991571D01*
X65543714Y-66991571D01*
X65686571Y-67063000D01*
X65758000Y-67134428D01*
X65829428Y-67277285D01*
X65829428Y-67491571D01*
X65758000Y-67634428D01*
X65686571Y-67705857D01*
X65543714Y-67777285D01*
X64972285Y-67777285D01*
X66472285Y-66991571D02*
X66472285Y-68205857D01*
X66543714Y-68348714D01*
X66615142Y-68420142D01*
X66758000Y-68491571D01*
X67043714Y-68491571D01*
X67186571Y-68420142D01*
X67258000Y-68348714D01*
X67329428Y-68205857D01*
X67329428Y-66991571D01*
X67972285Y-68420142D02*
X68186571Y-68491571D01*
X68543714Y-68491571D01*
X68686571Y-68420142D01*
X68758000Y-68348714D01*
X68829428Y-68205857D01*
X68829428Y-68063000D01*
X68758000Y-67920142D01*
X68686571Y-67848714D01*
X68543714Y-67777285D01*
X68258000Y-67705857D01*
X68115142Y-67634428D01*
X68043714Y-67563000D01*
X67972285Y-67420142D01*
X67972285Y-67277285D01*
X68043714Y-67134428D01*
X68115142Y-67063000D01*
X68258000Y-66991571D01*
X68615142Y-66991571D01*
X68829428Y-67063000D01*
X57722285Y-71041571D02*
X57722285Y-69541571D01*
X58222285Y-70613000D01*
X58722285Y-69541571D01*
X58722285Y-71041571D01*
X59436571Y-71041571D02*
X59436571Y-70041571D01*
X59436571Y-69541571D02*
X59365142Y-69613000D01*
X59436571Y-69684428D01*
X59508000Y-69613000D01*
X59436571Y-69541571D01*
X59436571Y-69684428D01*
X60793714Y-71041571D02*
X60793714Y-70255857D01*
X60722285Y-70113000D01*
X60579428Y-70041571D01*
X60293714Y-70041571D01*
X60150857Y-70113000D01*
X60793714Y-70970142D02*
X60650857Y-71041571D01*
X60293714Y-71041571D01*
X60150857Y-70970142D01*
X60079428Y-70827285D01*
X60079428Y-70684428D01*
X60150857Y-70541571D01*
X60293714Y-70470142D01*
X60650857Y-70470142D01*
X60793714Y-70398714D01*
X61508000Y-71041571D02*
X61508000Y-70041571D01*
X61508000Y-70327285D02*
X61579428Y-70184428D01*
X61650857Y-70113000D01*
X61793714Y-70041571D01*
X61936571Y-70041571D01*
X62436571Y-70041571D02*
X62436571Y-71541571D01*
X62436571Y-70113000D02*
X62579428Y-70041571D01*
X62865142Y-70041571D01*
X63008000Y-70113000D01*
X63079428Y-70184428D01*
X63150857Y-70327285D01*
X63150857Y-70755857D01*
X63079428Y-70898714D01*
X63008000Y-70970142D01*
X62865142Y-71041571D01*
X62579428Y-71041571D01*
X62436571Y-70970142D01*
X63793714Y-71041571D02*
X63793714Y-69541571D01*
X64436571Y-71041571D02*
X64436571Y-70255857D01*
X64365142Y-70113000D01*
X64222285Y-70041571D01*
X64008000Y-70041571D01*
X63865142Y-70113000D01*
X63793714Y-70184428D01*
X66150857Y-70041571D02*
X66508000Y-71041571D01*
X66865142Y-70041571D01*
X68222285Y-71041571D02*
X67365142Y-71041571D01*
X67793714Y-71041571D02*
X67793714Y-69541571D01*
X67650857Y-69755857D01*
X67508000Y-69898714D01*
X67365142Y-69970142D01*
X68865142Y-70898714D02*
X68936571Y-70970142D01*
X68865142Y-71041571D01*
X68793714Y-70970142D01*
X68865142Y-70898714D01*
X68865142Y-71041571D01*
X69865142Y-69541571D02*
X70008000Y-69541571D01*
X70150857Y-69613000D01*
X70222285Y-69684428D01*
X70293714Y-69827285D01*
X70365142Y-70113000D01*
X70365142Y-70470142D01*
X70293714Y-70755857D01*
X70222285Y-70898714D01*
X70150857Y-70970142D01*
X70008000Y-71041571D01*
X69865142Y-71041571D01*
X69722285Y-70970142D01*
X69650857Y-70898714D01*
X69579428Y-70755857D01*
X69508000Y-70470142D01*
X69508000Y-70113000D01*
X69579428Y-69827285D01*
X69650857Y-69684428D01*
X69722285Y-69613000D01*
X69865142Y-69541571D01*
D12*
G04 #@! TO.C,RV1*
X86459000Y-41030000D02*
X86459000Y-37093000D01*
X96500000Y-41030000D02*
X96500000Y-37093000D01*
X86459000Y-41030000D02*
X88109000Y-41030000D01*
X89851000Y-41030000D02*
X90610000Y-41030000D01*
X92351000Y-41030000D02*
X93110000Y-41030000D01*
X94850000Y-41030000D02*
X96500000Y-41030000D01*
G04 #@! TO.C,D1*
X77067665Y-36384608D02*
G75*
G03X80300000Y-36541516I1672335J1078608D01*
G01*
X77067665Y-34227392D02*
G75*
G02X80300000Y-34070484I1672335J-1078608D01*
G01*
X77698870Y-36385837D02*
G75*
G03X79780961Y-36386000I1041130J1079837D01*
G01*
X77698870Y-34226163D02*
G75*
G02X79780961Y-34226000I1041130J-1079837D01*
G01*
X80300000Y-36542000D02*
X80300000Y-36386000D01*
X80300000Y-34226000D02*
X80300000Y-34070000D01*
G04 #@! TO.C,J3*
X31436000Y-38100000D02*
X34096000Y-38100000D01*
X31436000Y-38100000D02*
X31436000Y-45780000D01*
X31436000Y-45780000D02*
X34096000Y-45780000D01*
X34096000Y-38100000D02*
X34096000Y-45780000D01*
X34096000Y-35500000D02*
X34096000Y-36830000D01*
X32766000Y-35500000D02*
X34096000Y-35500000D01*
G04 #@! TO.C,J5*
X61274000Y-125222000D02*
X61274000Y-126552000D01*
X61274000Y-126552000D02*
X59944000Y-126552000D01*
X58674000Y-126552000D02*
X40834000Y-126552000D01*
X40834000Y-123892000D02*
X40834000Y-126552000D01*
X58674000Y-123892000D02*
X40834000Y-123892000D01*
X58674000Y-123892000D02*
X58674000Y-126552000D01*
G04 #@! TO.C,J7*
X74240000Y-112724000D02*
X74240000Y-123224000D01*
X83240000Y-112724000D02*
X83240000Y-123224000D01*
X77443737Y-114635423D02*
G75*
G03X78740000Y-120119000I1296263J-2588577D01*
G01*
X80036263Y-114635423D02*
G75*
G02X78740000Y-120119000I-1296263J-2588577D01*
G01*
X83240000Y-123224000D02*
X79740000Y-123224000D01*
X77740000Y-123224000D02*
X74240000Y-123224000D01*
X83240000Y-112724000D02*
X79640000Y-112724000D01*
X77840000Y-112724000D02*
X74240000Y-112724000D01*
X80540000Y-117224000D02*
G75*
G03X80540000Y-117224000I-1800000J0D01*
G01*
X78320000Y-111944000D02*
X78320000Y-112544000D01*
X79160000Y-111944000D02*
X79160000Y-112544000D01*
X77340000Y-109564000D02*
X77340000Y-110664000D01*
X77340000Y-109564000D02*
X78660000Y-109564000D01*
G04 #@! TO.C,J8*
X102740000Y-48604000D02*
X104060000Y-48604000D01*
X102740000Y-48604000D02*
X102740000Y-49704000D01*
X104560000Y-50984000D02*
X104560000Y-51584000D01*
X103720000Y-50984000D02*
X103720000Y-51584000D01*
X105940000Y-56264000D02*
G75*
G03X105940000Y-56264000I-1800000J0D01*
G01*
X103240000Y-51764000D02*
X99640000Y-51764000D01*
X108640000Y-51764000D02*
X105040000Y-51764000D01*
X103140000Y-62264000D02*
X99640000Y-62264000D01*
X108640000Y-62264000D02*
X105140000Y-62264000D01*
X105436263Y-53675423D02*
G75*
G02X104140000Y-59159000I-1296263J-2588577D01*
G01*
X102843737Y-53675423D02*
G75*
G03X104140000Y-59159000I1296263J-2588577D01*
G01*
X108640000Y-51764000D02*
X108640000Y-62264000D01*
X99640000Y-51764000D02*
X99640000Y-62264000D01*
G04 #@! TO.C,J9*
X99640000Y-82244000D02*
X99640000Y-92744000D01*
X108640000Y-82244000D02*
X108640000Y-92744000D01*
X102843737Y-84155423D02*
G75*
G03X104140000Y-89639000I1296263J-2588577D01*
G01*
X105436263Y-84155423D02*
G75*
G02X104140000Y-89639000I-1296263J-2588577D01*
G01*
X108640000Y-92744000D02*
X105140000Y-92744000D01*
X103140000Y-92744000D02*
X99640000Y-92744000D01*
X108640000Y-82244000D02*
X105040000Y-82244000D01*
X103240000Y-82244000D02*
X99640000Y-82244000D01*
X105940000Y-86744000D02*
G75*
G03X105940000Y-86744000I-1800000J0D01*
G01*
X103720000Y-81464000D02*
X103720000Y-82064000D01*
X104560000Y-81464000D02*
X104560000Y-82064000D01*
X102740000Y-79084000D02*
X102740000Y-80184000D01*
X102740000Y-79084000D02*
X104060000Y-79084000D01*
G04 #@! TO.C,J10*
X90040000Y-109564000D02*
X91360000Y-109564000D01*
X90040000Y-109564000D02*
X90040000Y-110664000D01*
X91860000Y-111944000D02*
X91860000Y-112544000D01*
X91020000Y-111944000D02*
X91020000Y-112544000D01*
X93240000Y-117224000D02*
G75*
G03X93240000Y-117224000I-1800000J0D01*
G01*
X90540000Y-112724000D02*
X86940000Y-112724000D01*
X95940000Y-112724000D02*
X92340000Y-112724000D01*
X90440000Y-123224000D02*
X86940000Y-123224000D01*
X95940000Y-123224000D02*
X92440000Y-123224000D01*
X92736263Y-114635423D02*
G75*
G02X91440000Y-120119000I-1296263J-2588577D01*
G01*
X90143737Y-114635423D02*
G75*
G03X91440000Y-120119000I1296263J-2588577D01*
G01*
X95940000Y-112724000D02*
X95940000Y-123224000D01*
X86940000Y-112724000D02*
X86940000Y-123224000D01*
G04 #@! TO.C,J11*
X102740000Y-109564000D02*
X104060000Y-109564000D01*
X102740000Y-109564000D02*
X102740000Y-110664000D01*
X104560000Y-111944000D02*
X104560000Y-112544000D01*
X103720000Y-111944000D02*
X103720000Y-112544000D01*
X105940000Y-117224000D02*
G75*
G03X105940000Y-117224000I-1800000J0D01*
G01*
X103240000Y-112724000D02*
X99640000Y-112724000D01*
X108640000Y-112724000D02*
X105040000Y-112724000D01*
X103140000Y-123224000D02*
X99640000Y-123224000D01*
X108640000Y-123224000D02*
X105140000Y-123224000D01*
X105436263Y-114635423D02*
G75*
G02X104140000Y-120119000I-1296263J-2588577D01*
G01*
X102843737Y-114635423D02*
G75*
G03X104140000Y-120119000I1296263J-2588577D01*
G01*
X108640000Y-112724000D02*
X108640000Y-123224000D01*
X99640000Y-112724000D02*
X99640000Y-123224000D01*
G04 #@! TO.C,J12*
X99640000Y-67004000D02*
X99640000Y-77504000D01*
X108640000Y-67004000D02*
X108640000Y-77504000D01*
X102843737Y-68915423D02*
G75*
G03X104140000Y-74399000I1296263J-2588577D01*
G01*
X105436263Y-68915423D02*
G75*
G02X104140000Y-74399000I-1296263J-2588577D01*
G01*
X108640000Y-77504000D02*
X105140000Y-77504000D01*
X103140000Y-77504000D02*
X99640000Y-77504000D01*
X108640000Y-67004000D02*
X105040000Y-67004000D01*
X103240000Y-67004000D02*
X99640000Y-67004000D01*
X105940000Y-71504000D02*
G75*
G03X105940000Y-71504000I-1800000J0D01*
G01*
X103720000Y-66224000D02*
X103720000Y-66824000D01*
X104560000Y-66224000D02*
X104560000Y-66824000D01*
X102740000Y-63844000D02*
X102740000Y-64944000D01*
X102740000Y-63844000D02*
X104060000Y-63844000D01*
G04 #@! TO.C,J13*
X99640000Y-97484000D02*
X99640000Y-107984000D01*
X108640000Y-97484000D02*
X108640000Y-107984000D01*
X102843737Y-99395423D02*
G75*
G03X104140000Y-104879000I1296263J-2588577D01*
G01*
X105436263Y-99395423D02*
G75*
G02X104140000Y-104879000I-1296263J-2588577D01*
G01*
X108640000Y-107984000D02*
X105140000Y-107984000D01*
X103140000Y-107984000D02*
X99640000Y-107984000D01*
X108640000Y-97484000D02*
X105040000Y-97484000D01*
X103240000Y-97484000D02*
X99640000Y-97484000D01*
X105940000Y-101984000D02*
G75*
G03X105940000Y-101984000I-1800000J0D01*
G01*
X103720000Y-96704000D02*
X103720000Y-97304000D01*
X104560000Y-96704000D02*
X104560000Y-97304000D01*
X102740000Y-94324000D02*
X102740000Y-95424000D01*
X102740000Y-94324000D02*
X104060000Y-94324000D01*
G04 #@! TO.C,J16*
X77340000Y-48604000D02*
X78660000Y-48604000D01*
X77340000Y-48604000D02*
X77340000Y-49704000D01*
X79160000Y-50984000D02*
X79160000Y-51584000D01*
X78320000Y-50984000D02*
X78320000Y-51584000D01*
X80540000Y-56264000D02*
G75*
G03X80540000Y-56264000I-1800000J0D01*
G01*
X77840000Y-51764000D02*
X74240000Y-51764000D01*
X83240000Y-51764000D02*
X79640000Y-51764000D01*
X77740000Y-62264000D02*
X74240000Y-62264000D01*
X83240000Y-62264000D02*
X79740000Y-62264000D01*
X80036263Y-53675423D02*
G75*
G02X78740000Y-59159000I-1296263J-2588577D01*
G01*
X77443737Y-53675423D02*
G75*
G03X78740000Y-59159000I1296263J-2588577D01*
G01*
X83240000Y-51764000D02*
X83240000Y-62264000D01*
X74240000Y-51764000D02*
X74240000Y-62264000D01*
G04 #@! TO.C,J17*
X86940000Y-51764000D02*
X86940000Y-62264000D01*
X95940000Y-51764000D02*
X95940000Y-62264000D01*
X90143737Y-53675423D02*
G75*
G03X91440000Y-59159000I1296263J-2588577D01*
G01*
X92736263Y-53675423D02*
G75*
G02X91440000Y-59159000I-1296263J-2588577D01*
G01*
X95940000Y-62264000D02*
X92440000Y-62264000D01*
X90440000Y-62264000D02*
X86940000Y-62264000D01*
X95940000Y-51764000D02*
X92340000Y-51764000D01*
X90540000Y-51764000D02*
X86940000Y-51764000D01*
X93240000Y-56264000D02*
G75*
G03X93240000Y-56264000I-1800000J0D01*
G01*
X91020000Y-50984000D02*
X91020000Y-51584000D01*
X91860000Y-50984000D02*
X91860000Y-51584000D01*
X90040000Y-48604000D02*
X90040000Y-49704000D01*
X90040000Y-48604000D02*
X91360000Y-48604000D01*
G04 #@! TO.C,J18*
X77340000Y-63844000D02*
X78660000Y-63844000D01*
X77340000Y-63844000D02*
X77340000Y-64944000D01*
X79160000Y-66224000D02*
X79160000Y-66824000D01*
X78320000Y-66224000D02*
X78320000Y-66824000D01*
X80540000Y-71504000D02*
G75*
G03X80540000Y-71504000I-1800000J0D01*
G01*
X77840000Y-67004000D02*
X74240000Y-67004000D01*
X83240000Y-67004000D02*
X79640000Y-67004000D01*
X77740000Y-77504000D02*
X74240000Y-77504000D01*
X83240000Y-77504000D02*
X79740000Y-77504000D01*
X80036263Y-68915423D02*
G75*
G02X78740000Y-74399000I-1296263J-2588577D01*
G01*
X77443737Y-68915423D02*
G75*
G03X78740000Y-74399000I1296263J-2588577D01*
G01*
X83240000Y-67004000D02*
X83240000Y-77504000D01*
X74240000Y-67004000D02*
X74240000Y-77504000D01*
G04 #@! TO.C,J19*
X86940000Y-67004000D02*
X86940000Y-77504000D01*
X95940000Y-67004000D02*
X95940000Y-77504000D01*
X90143737Y-68915423D02*
G75*
G03X91440000Y-74399000I1296263J-2588577D01*
G01*
X92736263Y-68915423D02*
G75*
G02X91440000Y-74399000I-1296263J-2588577D01*
G01*
X95940000Y-77504000D02*
X92440000Y-77504000D01*
X90440000Y-77504000D02*
X86940000Y-77504000D01*
X95940000Y-67004000D02*
X92340000Y-67004000D01*
X90540000Y-67004000D02*
X86940000Y-67004000D01*
X93240000Y-71504000D02*
G75*
G03X93240000Y-71504000I-1800000J0D01*
G01*
X91020000Y-66224000D02*
X91020000Y-66824000D01*
X91860000Y-66224000D02*
X91860000Y-66824000D01*
X90040000Y-63844000D02*
X90040000Y-64944000D01*
X90040000Y-63844000D02*
X91360000Y-63844000D01*
G04 #@! TO.C,J20*
X74240000Y-82244000D02*
X74240000Y-92744000D01*
X83240000Y-82244000D02*
X83240000Y-92744000D01*
X77443737Y-84155423D02*
G75*
G03X78740000Y-89639000I1296263J-2588577D01*
G01*
X80036263Y-84155423D02*
G75*
G02X78740000Y-89639000I-1296263J-2588577D01*
G01*
X83240000Y-92744000D02*
X79740000Y-92744000D01*
X77740000Y-92744000D02*
X74240000Y-92744000D01*
X83240000Y-82244000D02*
X79640000Y-82244000D01*
X77840000Y-82244000D02*
X74240000Y-82244000D01*
X80540000Y-86744000D02*
G75*
G03X80540000Y-86744000I-1800000J0D01*
G01*
X78320000Y-81464000D02*
X78320000Y-82064000D01*
X79160000Y-81464000D02*
X79160000Y-82064000D01*
X77340000Y-79084000D02*
X77340000Y-80184000D01*
X77340000Y-79084000D02*
X78660000Y-79084000D01*
G04 #@! TO.C,J21*
X90040000Y-79084000D02*
X91360000Y-79084000D01*
X90040000Y-79084000D02*
X90040000Y-80184000D01*
X91860000Y-81464000D02*
X91860000Y-82064000D01*
X91020000Y-81464000D02*
X91020000Y-82064000D01*
X93240000Y-86744000D02*
G75*
G03X93240000Y-86744000I-1800000J0D01*
G01*
X90540000Y-82244000D02*
X86940000Y-82244000D01*
X95940000Y-82244000D02*
X92340000Y-82244000D01*
X90440000Y-92744000D02*
X86940000Y-92744000D01*
X95940000Y-92744000D02*
X92440000Y-92744000D01*
X92736263Y-84155423D02*
G75*
G02X91440000Y-89639000I-1296263J-2588577D01*
G01*
X90143737Y-84155423D02*
G75*
G03X91440000Y-89639000I1296263J-2588577D01*
G01*
X95940000Y-82244000D02*
X95940000Y-92744000D01*
X86940000Y-82244000D02*
X86940000Y-92744000D01*
G04 #@! TO.C,J22*
X74240000Y-97484000D02*
X74240000Y-107984000D01*
X83240000Y-97484000D02*
X83240000Y-107984000D01*
X77443737Y-99395423D02*
G75*
G03X78740000Y-104879000I1296263J-2588577D01*
G01*
X80036263Y-99395423D02*
G75*
G02X78740000Y-104879000I-1296263J-2588577D01*
G01*
X83240000Y-107984000D02*
X79740000Y-107984000D01*
X77740000Y-107984000D02*
X74240000Y-107984000D01*
X83240000Y-97484000D02*
X79640000Y-97484000D01*
X77840000Y-97484000D02*
X74240000Y-97484000D01*
X80540000Y-101984000D02*
G75*
G03X80540000Y-101984000I-1800000J0D01*
G01*
X78320000Y-96704000D02*
X78320000Y-97304000D01*
X79160000Y-96704000D02*
X79160000Y-97304000D01*
X77340000Y-94324000D02*
X77340000Y-95424000D01*
X77340000Y-94324000D02*
X78660000Y-94324000D01*
G04 #@! TO.C,J23*
X90040000Y-94324000D02*
X91360000Y-94324000D01*
X90040000Y-94324000D02*
X90040000Y-95424000D01*
X91860000Y-96704000D02*
X91860000Y-97304000D01*
X91020000Y-96704000D02*
X91020000Y-97304000D01*
X93240000Y-101984000D02*
G75*
G03X93240000Y-101984000I-1800000J0D01*
G01*
X90540000Y-97484000D02*
X86940000Y-97484000D01*
X95940000Y-97484000D02*
X92340000Y-97484000D01*
X90440000Y-107984000D02*
X86940000Y-107984000D01*
X95940000Y-107984000D02*
X92440000Y-107984000D01*
X92736263Y-99395423D02*
G75*
G02X91440000Y-104879000I-1296263J-2588577D01*
G01*
X90143737Y-99395423D02*
G75*
G03X91440000Y-104879000I1296263J-2588577D01*
G01*
X95940000Y-97484000D02*
X95940000Y-107984000D01*
X86940000Y-97484000D02*
X86940000Y-107984000D01*
G04 #@! TO.C,R1*
X42010000Y-75216000D02*
X41680000Y-75216000D01*
X42010000Y-81756000D02*
X42010000Y-75216000D01*
X41680000Y-81756000D02*
X42010000Y-81756000D01*
X39270000Y-75216000D02*
X39600000Y-75216000D01*
X39270000Y-81756000D02*
X39270000Y-75216000D01*
X39600000Y-81756000D02*
X39270000Y-81756000D01*
G04 #@! TO.C,R2*
X42902000Y-81756000D02*
X42572000Y-81756000D01*
X42572000Y-81756000D02*
X42572000Y-75216000D01*
X42572000Y-75216000D02*
X42902000Y-75216000D01*
X44982000Y-81756000D02*
X45312000Y-81756000D01*
X45312000Y-81756000D02*
X45312000Y-75216000D01*
X45312000Y-75216000D02*
X44982000Y-75216000D01*
G04 #@! TO.C,U2*
X39386000Y-98612000D02*
G75*
G02X41386000Y-98612000I1000000J0D01*
G01*
X41386000Y-98612000D02*
X43036000Y-98612000D01*
X43036000Y-98612000D02*
X43036000Y-88332000D01*
X43036000Y-88332000D02*
X37736000Y-88332000D01*
X37736000Y-88332000D02*
X37736000Y-98612000D01*
X37736000Y-98612000D02*
X39386000Y-98612000D01*
G04 #@! TO.C,J14*
X31436000Y-32766000D02*
X31436000Y-31436000D01*
X31436000Y-31436000D02*
X32766000Y-31436000D01*
X34036000Y-31436000D02*
X41716000Y-31436000D01*
X41716000Y-34096000D02*
X41716000Y-31436000D01*
X34036000Y-34096000D02*
X41716000Y-34096000D01*
X34036000Y-34096000D02*
X34036000Y-31436000D01*
G04 #@! TO.C,J15*
X62484000Y-34096000D02*
X62484000Y-31436000D01*
X62484000Y-34096000D02*
X70164000Y-34096000D01*
X70164000Y-34096000D02*
X70164000Y-31436000D01*
X62484000Y-31436000D02*
X70164000Y-31436000D01*
X59884000Y-31436000D02*
X61214000Y-31436000D01*
X59884000Y-32766000D02*
X59884000Y-31436000D01*
G04 #@! TO.C,RV1*
D10*
X90844761Y-39568380D02*
X90511428Y-39092190D01*
X90273333Y-39568380D02*
X90273333Y-38568380D01*
X90654285Y-38568380D01*
X90749523Y-38616000D01*
X90797142Y-38663619D01*
X90844761Y-38758857D01*
X90844761Y-38901714D01*
X90797142Y-38996952D01*
X90749523Y-39044571D01*
X90654285Y-39092190D01*
X90273333Y-39092190D01*
X91130476Y-38568380D02*
X91463809Y-39568380D01*
X91797142Y-38568380D01*
X92654285Y-39568380D02*
X92082857Y-39568380D01*
X92368571Y-39568380D02*
X92368571Y-38568380D01*
X92273333Y-38711238D01*
X92178095Y-38806476D01*
X92082857Y-38854095D01*
G04 #@! TO.C,D1*
X78001904Y-38718380D02*
X78001904Y-37718380D01*
X78240000Y-37718380D01*
X78382857Y-37766000D01*
X78478095Y-37861238D01*
X78525714Y-37956476D01*
X78573333Y-38146952D01*
X78573333Y-38289809D01*
X78525714Y-38480285D01*
X78478095Y-38575523D01*
X78382857Y-38670761D01*
X78240000Y-38718380D01*
X78001904Y-38718380D01*
X79525714Y-38718380D02*
X78954285Y-38718380D01*
X79240000Y-38718380D02*
X79240000Y-37718380D01*
X79144761Y-37861238D01*
X79049523Y-37956476D01*
X78954285Y-38004095D01*
G04 #@! TO.C,J3*
X32432666Y-46188380D02*
X32432666Y-46902666D01*
X32385047Y-47045523D01*
X32289809Y-47140761D01*
X32146952Y-47188380D01*
X32051714Y-47188380D01*
X32813619Y-46188380D02*
X33432666Y-46188380D01*
X33099333Y-46569333D01*
X33242190Y-46569333D01*
X33337428Y-46616952D01*
X33385047Y-46664571D01*
X33432666Y-46759809D01*
X33432666Y-46997904D01*
X33385047Y-47093142D01*
X33337428Y-47140761D01*
X33242190Y-47188380D01*
X32956476Y-47188380D01*
X32861238Y-47140761D01*
X32813619Y-47093142D01*
G04 #@! TO.C,J5*
X62166380Y-125555333D02*
X62880666Y-125555333D01*
X63023523Y-125602952D01*
X63118761Y-125698190D01*
X63166380Y-125841047D01*
X63166380Y-125936285D01*
X62166380Y-124602952D02*
X62166380Y-125079142D01*
X62642571Y-125126761D01*
X62594952Y-125079142D01*
X62547333Y-124983904D01*
X62547333Y-124745809D01*
X62594952Y-124650571D01*
X62642571Y-124602952D01*
X62737809Y-124555333D01*
X62975904Y-124555333D01*
X63071142Y-124602952D01*
X63118761Y-124650571D01*
X63166380Y-124745809D01*
X63166380Y-124983904D01*
X63118761Y-125079142D01*
X63071142Y-125126761D01*
G04 #@! TO.C,J7*
X74376666Y-111276380D02*
X74376666Y-111990666D01*
X74329047Y-112133523D01*
X74233809Y-112228761D01*
X74090952Y-112276380D01*
X73995714Y-112276380D01*
X74757619Y-111276380D02*
X75424285Y-111276380D01*
X74995714Y-112276380D01*
G04 #@! TO.C,J8*
X99776666Y-50316380D02*
X99776666Y-51030666D01*
X99729047Y-51173523D01*
X99633809Y-51268761D01*
X99490952Y-51316380D01*
X99395714Y-51316380D01*
X100395714Y-50744952D02*
X100300476Y-50697333D01*
X100252857Y-50649714D01*
X100205238Y-50554476D01*
X100205238Y-50506857D01*
X100252857Y-50411619D01*
X100300476Y-50364000D01*
X100395714Y-50316380D01*
X100586190Y-50316380D01*
X100681428Y-50364000D01*
X100729047Y-50411619D01*
X100776666Y-50506857D01*
X100776666Y-50554476D01*
X100729047Y-50649714D01*
X100681428Y-50697333D01*
X100586190Y-50744952D01*
X100395714Y-50744952D01*
X100300476Y-50792571D01*
X100252857Y-50840190D01*
X100205238Y-50935428D01*
X100205238Y-51125904D01*
X100252857Y-51221142D01*
X100300476Y-51268761D01*
X100395714Y-51316380D01*
X100586190Y-51316380D01*
X100681428Y-51268761D01*
X100729047Y-51221142D01*
X100776666Y-51125904D01*
X100776666Y-50935428D01*
X100729047Y-50840190D01*
X100681428Y-50792571D01*
X100586190Y-50744952D01*
G04 #@! TO.C,J9*
X99776666Y-80796380D02*
X99776666Y-81510666D01*
X99729047Y-81653523D01*
X99633809Y-81748761D01*
X99490952Y-81796380D01*
X99395714Y-81796380D01*
X100300476Y-81796380D02*
X100490952Y-81796380D01*
X100586190Y-81748761D01*
X100633809Y-81701142D01*
X100729047Y-81558285D01*
X100776666Y-81367809D01*
X100776666Y-80986857D01*
X100729047Y-80891619D01*
X100681428Y-80844000D01*
X100586190Y-80796380D01*
X100395714Y-80796380D01*
X100300476Y-80844000D01*
X100252857Y-80891619D01*
X100205238Y-80986857D01*
X100205238Y-81224952D01*
X100252857Y-81320190D01*
X100300476Y-81367809D01*
X100395714Y-81415428D01*
X100586190Y-81415428D01*
X100681428Y-81367809D01*
X100729047Y-81320190D01*
X100776666Y-81224952D01*
G04 #@! TO.C,J10*
X86600476Y-111276380D02*
X86600476Y-111990666D01*
X86552857Y-112133523D01*
X86457619Y-112228761D01*
X86314761Y-112276380D01*
X86219523Y-112276380D01*
X87600476Y-112276380D02*
X87029047Y-112276380D01*
X87314761Y-112276380D02*
X87314761Y-111276380D01*
X87219523Y-111419238D01*
X87124285Y-111514476D01*
X87029047Y-111562095D01*
X88219523Y-111276380D02*
X88314761Y-111276380D01*
X88410000Y-111324000D01*
X88457619Y-111371619D01*
X88505238Y-111466857D01*
X88552857Y-111657333D01*
X88552857Y-111895428D01*
X88505238Y-112085904D01*
X88457619Y-112181142D01*
X88410000Y-112228761D01*
X88314761Y-112276380D01*
X88219523Y-112276380D01*
X88124285Y-112228761D01*
X88076666Y-112181142D01*
X88029047Y-112085904D01*
X87981428Y-111895428D01*
X87981428Y-111657333D01*
X88029047Y-111466857D01*
X88076666Y-111371619D01*
X88124285Y-111324000D01*
X88219523Y-111276380D01*
G04 #@! TO.C,J11*
X99300476Y-111276380D02*
X99300476Y-111990666D01*
X99252857Y-112133523D01*
X99157619Y-112228761D01*
X99014761Y-112276380D01*
X98919523Y-112276380D01*
X100300476Y-112276380D02*
X99729047Y-112276380D01*
X100014761Y-112276380D02*
X100014761Y-111276380D01*
X99919523Y-111419238D01*
X99824285Y-111514476D01*
X99729047Y-111562095D01*
X101252857Y-112276380D02*
X100681428Y-112276380D01*
X100967142Y-112276380D02*
X100967142Y-111276380D01*
X100871904Y-111419238D01*
X100776666Y-111514476D01*
X100681428Y-111562095D01*
G04 #@! TO.C,J12*
X99300476Y-65556380D02*
X99300476Y-66270666D01*
X99252857Y-66413523D01*
X99157619Y-66508761D01*
X99014761Y-66556380D01*
X98919523Y-66556380D01*
X100300476Y-66556380D02*
X99729047Y-66556380D01*
X100014761Y-66556380D02*
X100014761Y-65556380D01*
X99919523Y-65699238D01*
X99824285Y-65794476D01*
X99729047Y-65842095D01*
X100681428Y-65651619D02*
X100729047Y-65604000D01*
X100824285Y-65556380D01*
X101062380Y-65556380D01*
X101157619Y-65604000D01*
X101205238Y-65651619D01*
X101252857Y-65746857D01*
X101252857Y-65842095D01*
X101205238Y-65984952D01*
X100633809Y-66556380D01*
X101252857Y-66556380D01*
G04 #@! TO.C,J13*
X99300476Y-96036380D02*
X99300476Y-96750666D01*
X99252857Y-96893523D01*
X99157619Y-96988761D01*
X99014761Y-97036380D01*
X98919523Y-97036380D01*
X100300476Y-97036380D02*
X99729047Y-97036380D01*
X100014761Y-97036380D02*
X100014761Y-96036380D01*
X99919523Y-96179238D01*
X99824285Y-96274476D01*
X99729047Y-96322095D01*
X100633809Y-96036380D02*
X101252857Y-96036380D01*
X100919523Y-96417333D01*
X101062380Y-96417333D01*
X101157619Y-96464952D01*
X101205238Y-96512571D01*
X101252857Y-96607809D01*
X101252857Y-96845904D01*
X101205238Y-96941142D01*
X101157619Y-96988761D01*
X101062380Y-97036380D01*
X100776666Y-97036380D01*
X100681428Y-96988761D01*
X100633809Y-96941142D01*
G04 #@! TO.C,J16*
X73900476Y-50316380D02*
X73900476Y-51030666D01*
X73852857Y-51173523D01*
X73757619Y-51268761D01*
X73614761Y-51316380D01*
X73519523Y-51316380D01*
X74900476Y-51316380D02*
X74329047Y-51316380D01*
X74614761Y-51316380D02*
X74614761Y-50316380D01*
X74519523Y-50459238D01*
X74424285Y-50554476D01*
X74329047Y-50602095D01*
X75757619Y-50316380D02*
X75567142Y-50316380D01*
X75471904Y-50364000D01*
X75424285Y-50411619D01*
X75329047Y-50554476D01*
X75281428Y-50744952D01*
X75281428Y-51125904D01*
X75329047Y-51221142D01*
X75376666Y-51268761D01*
X75471904Y-51316380D01*
X75662380Y-51316380D01*
X75757619Y-51268761D01*
X75805238Y-51221142D01*
X75852857Y-51125904D01*
X75852857Y-50887809D01*
X75805238Y-50792571D01*
X75757619Y-50744952D01*
X75662380Y-50697333D01*
X75471904Y-50697333D01*
X75376666Y-50744952D01*
X75329047Y-50792571D01*
X75281428Y-50887809D01*
G04 #@! TO.C,J17*
X86600476Y-50316380D02*
X86600476Y-51030666D01*
X86552857Y-51173523D01*
X86457619Y-51268761D01*
X86314761Y-51316380D01*
X86219523Y-51316380D01*
X87600476Y-51316380D02*
X87029047Y-51316380D01*
X87314761Y-51316380D02*
X87314761Y-50316380D01*
X87219523Y-50459238D01*
X87124285Y-50554476D01*
X87029047Y-50602095D01*
X87933809Y-50316380D02*
X88600476Y-50316380D01*
X88171904Y-51316380D01*
G04 #@! TO.C,J18*
X73900476Y-65556380D02*
X73900476Y-66270666D01*
X73852857Y-66413523D01*
X73757619Y-66508761D01*
X73614761Y-66556380D01*
X73519523Y-66556380D01*
X74900476Y-66556380D02*
X74329047Y-66556380D01*
X74614761Y-66556380D02*
X74614761Y-65556380D01*
X74519523Y-65699238D01*
X74424285Y-65794476D01*
X74329047Y-65842095D01*
X75471904Y-65984952D02*
X75376666Y-65937333D01*
X75329047Y-65889714D01*
X75281428Y-65794476D01*
X75281428Y-65746857D01*
X75329047Y-65651619D01*
X75376666Y-65604000D01*
X75471904Y-65556380D01*
X75662380Y-65556380D01*
X75757619Y-65604000D01*
X75805238Y-65651619D01*
X75852857Y-65746857D01*
X75852857Y-65794476D01*
X75805238Y-65889714D01*
X75757619Y-65937333D01*
X75662380Y-65984952D01*
X75471904Y-65984952D01*
X75376666Y-66032571D01*
X75329047Y-66080190D01*
X75281428Y-66175428D01*
X75281428Y-66365904D01*
X75329047Y-66461142D01*
X75376666Y-66508761D01*
X75471904Y-66556380D01*
X75662380Y-66556380D01*
X75757619Y-66508761D01*
X75805238Y-66461142D01*
X75852857Y-66365904D01*
X75852857Y-66175428D01*
X75805238Y-66080190D01*
X75757619Y-66032571D01*
X75662380Y-65984952D01*
G04 #@! TO.C,J19*
X86600476Y-65556380D02*
X86600476Y-66270666D01*
X86552857Y-66413523D01*
X86457619Y-66508761D01*
X86314761Y-66556380D01*
X86219523Y-66556380D01*
X87600476Y-66556380D02*
X87029047Y-66556380D01*
X87314761Y-66556380D02*
X87314761Y-65556380D01*
X87219523Y-65699238D01*
X87124285Y-65794476D01*
X87029047Y-65842095D01*
X88076666Y-66556380D02*
X88267142Y-66556380D01*
X88362380Y-66508761D01*
X88410000Y-66461142D01*
X88505238Y-66318285D01*
X88552857Y-66127809D01*
X88552857Y-65746857D01*
X88505238Y-65651619D01*
X88457619Y-65604000D01*
X88362380Y-65556380D01*
X88171904Y-65556380D01*
X88076666Y-65604000D01*
X88029047Y-65651619D01*
X87981428Y-65746857D01*
X87981428Y-65984952D01*
X88029047Y-66080190D01*
X88076666Y-66127809D01*
X88171904Y-66175428D01*
X88362380Y-66175428D01*
X88457619Y-66127809D01*
X88505238Y-66080190D01*
X88552857Y-65984952D01*
G04 #@! TO.C,J20*
X73900476Y-80796380D02*
X73900476Y-81510666D01*
X73852857Y-81653523D01*
X73757619Y-81748761D01*
X73614761Y-81796380D01*
X73519523Y-81796380D01*
X74329047Y-80891619D02*
X74376666Y-80844000D01*
X74471904Y-80796380D01*
X74710000Y-80796380D01*
X74805238Y-80844000D01*
X74852857Y-80891619D01*
X74900476Y-80986857D01*
X74900476Y-81082095D01*
X74852857Y-81224952D01*
X74281428Y-81796380D01*
X74900476Y-81796380D01*
X75519523Y-80796380D02*
X75614761Y-80796380D01*
X75710000Y-80844000D01*
X75757619Y-80891619D01*
X75805238Y-80986857D01*
X75852857Y-81177333D01*
X75852857Y-81415428D01*
X75805238Y-81605904D01*
X75757619Y-81701142D01*
X75710000Y-81748761D01*
X75614761Y-81796380D01*
X75519523Y-81796380D01*
X75424285Y-81748761D01*
X75376666Y-81701142D01*
X75329047Y-81605904D01*
X75281428Y-81415428D01*
X75281428Y-81177333D01*
X75329047Y-80986857D01*
X75376666Y-80891619D01*
X75424285Y-80844000D01*
X75519523Y-80796380D01*
G04 #@! TO.C,J21*
X86600476Y-80796380D02*
X86600476Y-81510666D01*
X86552857Y-81653523D01*
X86457619Y-81748761D01*
X86314761Y-81796380D01*
X86219523Y-81796380D01*
X87029047Y-80891619D02*
X87076666Y-80844000D01*
X87171904Y-80796380D01*
X87410000Y-80796380D01*
X87505238Y-80844000D01*
X87552857Y-80891619D01*
X87600476Y-80986857D01*
X87600476Y-81082095D01*
X87552857Y-81224952D01*
X86981428Y-81796380D01*
X87600476Y-81796380D01*
X88552857Y-81796380D02*
X87981428Y-81796380D01*
X88267142Y-81796380D02*
X88267142Y-80796380D01*
X88171904Y-80939238D01*
X88076666Y-81034476D01*
X87981428Y-81082095D01*
G04 #@! TO.C,J22*
X73900476Y-96036380D02*
X73900476Y-96750666D01*
X73852857Y-96893523D01*
X73757619Y-96988761D01*
X73614761Y-97036380D01*
X73519523Y-97036380D01*
X74329047Y-96131619D02*
X74376666Y-96084000D01*
X74471904Y-96036380D01*
X74710000Y-96036380D01*
X74805238Y-96084000D01*
X74852857Y-96131619D01*
X74900476Y-96226857D01*
X74900476Y-96322095D01*
X74852857Y-96464952D01*
X74281428Y-97036380D01*
X74900476Y-97036380D01*
X75281428Y-96131619D02*
X75329047Y-96084000D01*
X75424285Y-96036380D01*
X75662380Y-96036380D01*
X75757619Y-96084000D01*
X75805238Y-96131619D01*
X75852857Y-96226857D01*
X75852857Y-96322095D01*
X75805238Y-96464952D01*
X75233809Y-97036380D01*
X75852857Y-97036380D01*
G04 #@! TO.C,J23*
X86600476Y-96036380D02*
X86600476Y-96750666D01*
X86552857Y-96893523D01*
X86457619Y-96988761D01*
X86314761Y-97036380D01*
X86219523Y-97036380D01*
X87029047Y-96131619D02*
X87076666Y-96084000D01*
X87171904Y-96036380D01*
X87410000Y-96036380D01*
X87505238Y-96084000D01*
X87552857Y-96131619D01*
X87600476Y-96226857D01*
X87600476Y-96322095D01*
X87552857Y-96464952D01*
X86981428Y-97036380D01*
X87600476Y-97036380D01*
X87933809Y-96036380D02*
X88552857Y-96036380D01*
X88219523Y-96417333D01*
X88362380Y-96417333D01*
X88457619Y-96464952D01*
X88505238Y-96512571D01*
X88552857Y-96607809D01*
X88552857Y-96845904D01*
X88505238Y-96941142D01*
X88457619Y-96988761D01*
X88362380Y-97036380D01*
X88076666Y-97036380D01*
X87981428Y-96988761D01*
X87933809Y-96941142D01*
G04 #@! TO.C,R1*
X41346380Y-78652666D02*
X40870190Y-78986000D01*
X41346380Y-79224095D02*
X40346380Y-79224095D01*
X40346380Y-78843142D01*
X40394000Y-78747904D01*
X40441619Y-78700285D01*
X40536857Y-78652666D01*
X40679714Y-78652666D01*
X40774952Y-78700285D01*
X40822571Y-78747904D01*
X40870190Y-78843142D01*
X40870190Y-79224095D01*
X41346380Y-77700285D02*
X41346380Y-78271714D01*
X41346380Y-77986000D02*
X40346380Y-77986000D01*
X40489238Y-78081238D01*
X40584476Y-78176476D01*
X40632095Y-78271714D01*
G04 #@! TO.C,R2*
X44394380Y-78652666D02*
X43918190Y-78986000D01*
X44394380Y-79224095D02*
X43394380Y-79224095D01*
X43394380Y-78843142D01*
X43442000Y-78747904D01*
X43489619Y-78700285D01*
X43584857Y-78652666D01*
X43727714Y-78652666D01*
X43822952Y-78700285D01*
X43870571Y-78747904D01*
X43918190Y-78843142D01*
X43918190Y-79224095D01*
X43489619Y-78271714D02*
X43442000Y-78224095D01*
X43394380Y-78128857D01*
X43394380Y-77890761D01*
X43442000Y-77795523D01*
X43489619Y-77747904D01*
X43584857Y-77700285D01*
X43680095Y-77700285D01*
X43822952Y-77747904D01*
X44394380Y-78319333D01*
X44394380Y-77700285D01*
G04 #@! TO.C,U2*
X39370095Y-89368380D02*
X39370095Y-90177904D01*
X39417714Y-90273142D01*
X39465333Y-90320761D01*
X39560571Y-90368380D01*
X39751047Y-90368380D01*
X39846285Y-90320761D01*
X39893904Y-90273142D01*
X39941523Y-90177904D01*
X39941523Y-89368380D01*
X40370095Y-89463619D02*
X40417714Y-89416000D01*
X40512952Y-89368380D01*
X40751047Y-89368380D01*
X40846285Y-89416000D01*
X40893904Y-89463619D01*
X40941523Y-89558857D01*
X40941523Y-89654095D01*
X40893904Y-89796952D01*
X40322476Y-90368380D01*
X40941523Y-90368380D01*
G04 #@! TO.C,J14*
X42124380Y-33575523D02*
X42838666Y-33575523D01*
X42981523Y-33623142D01*
X43076761Y-33718380D01*
X43124380Y-33861238D01*
X43124380Y-33956476D01*
X43124380Y-32575523D02*
X43124380Y-33146952D01*
X43124380Y-32861238D02*
X42124380Y-32861238D01*
X42267238Y-32956476D01*
X42362476Y-33051714D01*
X42410095Y-33146952D01*
X42457714Y-31718380D02*
X43124380Y-31718380D01*
X42076761Y-31956476D02*
X42791047Y-32194571D01*
X42791047Y-31575523D01*
G04 #@! TO.C,J15*
X57896380Y-33575523D02*
X58610666Y-33575523D01*
X58753523Y-33623142D01*
X58848761Y-33718380D01*
X58896380Y-33861238D01*
X58896380Y-33956476D01*
X58896380Y-32575523D02*
X58896380Y-33146952D01*
X58896380Y-32861238D02*
X57896380Y-32861238D01*
X58039238Y-32956476D01*
X58134476Y-33051714D01*
X58182095Y-33146952D01*
X57896380Y-31670761D02*
X57896380Y-32146952D01*
X58372571Y-32194571D01*
X58324952Y-32146952D01*
X58277333Y-32051714D01*
X58277333Y-31813619D01*
X58324952Y-31718380D01*
X58372571Y-31670761D01*
X58467809Y-31623142D01*
X58705904Y-31623142D01*
X58801142Y-31670761D01*
X58848761Y-31718380D01*
X58896380Y-31813619D01*
X58896380Y-32051714D01*
X58848761Y-32146952D01*
X58801142Y-32194571D01*
G04 #@! TD*
M02*
