G04 #@! TF.GenerationSoftware,KiCad,Pcbnew,5.0.2+dfsg1-1~bpo9+1*
G04 #@! TF.CreationDate,2019-05-25T00:57:50+02:00*
G04 #@! TF.ProjectId,midi2cv,6d696469-3263-4762-9e6b-696361645f70,rev?*
G04 #@! TF.SameCoordinates,Original*
G04 #@! TF.FileFunction,Copper,L2,Bot*
G04 #@! TF.FilePolarity,Positive*
%FSLAX46Y46*%
G04 Gerber Fmt 4.6, Leading zero omitted, Abs format (unit mm)*
G04 Created by KiCad (PCBNEW 5.0.2+dfsg1-1~bpo9+1) date Sat 25 May 2019 12:57:50 AM CEST*
%MOMM*%
%LPD*%
G01*
G04 APERTURE LIST*
G04 #@! TA.AperFunction,ComponentPad*
%ADD10C,1.800000*%
G04 #@! TD*
G04 #@! TA.AperFunction,WasherPad*
%ADD11C,4.000000*%
G04 #@! TD*
G04 #@! TA.AperFunction,ComponentPad*
%ADD12O,1.600000X1.600000*%
G04 #@! TD*
G04 #@! TA.AperFunction,ComponentPad*
%ADD13R,1.600000X1.600000*%
G04 #@! TD*
G04 #@! TA.AperFunction,ComponentPad*
%ADD14C,2.000000*%
G04 #@! TD*
G04 #@! TA.AperFunction,ComponentPad*
%ADD15R,2.000000X2.000000*%
G04 #@! TD*
G04 #@! TA.AperFunction,ComponentPad*
%ADD16R,1.800000X1.800000*%
G04 #@! TD*
G04 #@! TA.AperFunction,ComponentPad*
%ADD17R,1.700000X1.700000*%
G04 #@! TD*
G04 #@! TA.AperFunction,ComponentPad*
%ADD18O,1.700000X1.700000*%
G04 #@! TD*
G04 #@! TA.AperFunction,ComponentPad*
%ADD19R,1.727200X1.727200*%
G04 #@! TD*
G04 #@! TA.AperFunction,ComponentPad*
%ADD20O,1.727200X1.727200*%
G04 #@! TD*
G04 #@! TA.AperFunction,ComponentPad*
%ADD21O,2.800000X2.350000*%
G04 #@! TD*
G04 #@! TA.AperFunction,ComponentPad*
%ADD22R,2.600000X2.150000*%
G04 #@! TD*
G04 #@! TA.AperFunction,ComponentPad*
%ADD23C,2.700000*%
G04 #@! TD*
G04 #@! TA.AperFunction,ComponentPad*
%ADD24C,1.600000*%
G04 #@! TD*
G04 #@! TA.AperFunction,ComponentPad*
%ADD25R,2.000000X1.905000*%
G04 #@! TD*
G04 #@! TA.AperFunction,ComponentPad*
%ADD26O,2.000000X1.905000*%
G04 #@! TD*
G04 #@! TA.AperFunction,ViaPad*
%ADD27C,0.800000*%
G04 #@! TD*
G04 #@! TA.AperFunction,Conductor*
%ADD28C,0.250000*%
G04 #@! TD*
G04 #@! TA.AperFunction,Conductor*
%ADD29C,0.500000*%
G04 #@! TD*
G04 APERTURE END LIST*
D10*
G04 #@! TO.P,RV1,3*
G04 #@! TO.N,GNDA*
X88980000Y-41910000D03*
G04 #@! TO.P,RV1,2*
G04 #@! TO.N,Net-(J4-Pad2)*
X91480000Y-41910000D03*
G04 #@! TO.P,RV1,1*
G04 #@! TO.N,+5VA*
X93980000Y-41910000D03*
D11*
G04 #@! TO.P,RV1,*
G04 #@! TO.N,*
X87080000Y-34910000D03*
X95880000Y-34910000D03*
G04 #@! TD*
D12*
G04 #@! TO.P,NANO,16*
G04 #@! TO.N,DAC_SCK*
X48006000Y-61976000D03*
G04 #@! TO.P,NANO,15*
G04 #@! TO.N,GATE1_OUT*
X32766000Y-61976000D03*
G04 #@! TO.P,NANO,30*
G04 #@! TO.N,Net-(A1-Pad30)*
X48006000Y-97536000D03*
G04 #@! TO.P,NANO,14*
G04 #@! TO.N,DAC_SDI*
X32766000Y-64516000D03*
G04 #@! TO.P,NANO,29*
G04 #@! TO.N,GND*
X48006000Y-94996000D03*
G04 #@! TO.P,NANO,13*
G04 #@! TO.N,DAC1_CS*
X32766000Y-67056000D03*
G04 #@! TO.P,NANO,28*
G04 #@! TO.N,Net-(A1-Pad28)*
X48006000Y-92456000D03*
G04 #@! TO.P,NANO,12*
G04 #@! TO.N,GATE2_OUT*
X32766000Y-69596000D03*
G04 #@! TO.P,NANO,27*
G04 #@! TO.N,+5V*
X48006000Y-89916000D03*
G04 #@! TO.P,NANO,11*
G04 #@! TO.N,ACT_LED*
X32766000Y-72136000D03*
G04 #@! TO.P,NANO,26*
G04 #@! TO.N,Net-(A1-Pad26)*
X48006000Y-87376000D03*
G04 #@! TO.P,NANO,10*
G04 #@! TO.N,DAC2_CS*
X32766000Y-74676000D03*
G04 #@! TO.P,NANO,25*
G04 #@! TO.N,Net-(A1-Pad25)*
X48006000Y-84836000D03*
G04 #@! TO.P,NANO,9*
G04 #@! TO.N,595_RCLK*
X32766000Y-77216000D03*
G04 #@! TO.P,NANO,24*
G04 #@! TO.N,SCL*
X48006000Y-82296000D03*
G04 #@! TO.P,NANO,8*
G04 #@! TO.N,595_SRCLK*
X32766000Y-79756000D03*
G04 #@! TO.P,NANO,23*
G04 #@! TO.N,SDA*
X48006000Y-79756000D03*
G04 #@! TO.P,NANO,7*
G04 #@! TO.N,595_SER*
X32766000Y-82296000D03*
G04 #@! TO.P,NANO,22*
G04 #@! TO.N,Net-(A1-Pad22)*
X48006000Y-77216000D03*
G04 #@! TO.P,NANO,6*
G04 #@! TO.N,Net-(A1-Pad6)*
X32766000Y-84836000D03*
G04 #@! TO.P,NANO,21*
G04 #@! TO.N,Net-(A1-Pad21)*
X48006000Y-74676000D03*
G04 #@! TO.P,NANO,5*
G04 #@! TO.N,Net-(A1-Pad5)*
X32766000Y-87376000D03*
G04 #@! TO.P,NANO,20*
G04 #@! TO.N,Net-(A1-Pad20)*
X48006000Y-72136000D03*
G04 #@! TO.P,NANO,4*
G04 #@! TO.N,GND*
X32766000Y-89916000D03*
G04 #@! TO.P,NANO,19*
G04 #@! TO.N,ARP_LENGTH*
X48006000Y-69596000D03*
G04 #@! TO.P,NANO,3*
G04 #@! TO.N,Net-(A1-Pad3)*
X32766000Y-92456000D03*
G04 #@! TO.P,NANO,18*
G04 #@! TO.N,Net-(A1-Pad18)*
X48006000Y-67056000D03*
G04 #@! TO.P,NANO,2*
G04 #@! TO.N,Net-(A1-Pad2)*
X32766000Y-94996000D03*
G04 #@! TO.P,NANO,17*
G04 #@! TO.N,Net-(A1-Pad17)*
X48006000Y-64516000D03*
D13*
G04 #@! TO.P,NANO,1*
G04 #@! TO.N,Net-(A1-Pad1)*
X32766000Y-97536000D03*
G04 #@! TD*
D14*
G04 #@! TO.P,C1,2*
G04 #@! TO.N,GND*
X57658000Y-86360000D03*
X55118000Y-86360000D03*
D15*
G04 #@! TO.P,C1,1*
G04 #@! TO.N,+12V*
X52578000Y-86360000D03*
G04 #@! TD*
G04 #@! TO.P,C2,1*
G04 #@! TO.N,+5V*
X62484000Y-86360000D03*
D14*
G04 #@! TO.P,C2,2*
G04 #@! TO.N,GND*
X65024000Y-86360000D03*
X67564000Y-86360000D03*
G04 #@! TD*
D15*
G04 #@! TO.P,C3,1*
G04 #@! TO.N,+5V*
X57519560Y-102616000D03*
D14*
G04 #@! TO.P,C3,2*
G04 #@! TO.N,GND*
X54979560Y-102616000D03*
X52439560Y-102616000D03*
G04 #@! TD*
G04 #@! TO.P,C4,2*
G04 #@! TO.N,GND*
X62992000Y-102616000D03*
X65532000Y-102616000D03*
D15*
G04 #@! TO.P,C4,1*
G04 #@! TO.N,+5V*
X68072000Y-102616000D03*
G04 #@! TD*
G04 #@! TO.P,C5,1*
G04 #@! TO.N,GND*
X49276000Y-49276000D03*
D14*
G04 #@! TO.P,C5,2*
G04 #@! TO.N,+12V*
X49276000Y-46736000D03*
X49276000Y-44196000D03*
G04 #@! TD*
G04 #@! TO.P,C6,2*
G04 #@! TO.N,-12V*
X36068000Y-44196000D03*
X36068000Y-46736000D03*
D15*
G04 #@! TO.P,C6,1*
G04 #@! TO.N,GND*
X36068000Y-49276000D03*
G04 #@! TD*
G04 #@! TO.P,C7,1*
G04 #@! TO.N,+5V*
X51308000Y-66802000D03*
D14*
G04 #@! TO.P,C7,2*
G04 #@! TO.N,GND*
X53848000Y-66802000D03*
X56388000Y-66802000D03*
G04 #@! TD*
G04 #@! TO.P,C8,2*
G04 #@! TO.N,+12V*
X65532000Y-44196000D03*
X65532000Y-46736000D03*
D15*
G04 #@! TO.P,C8,1*
G04 #@! TO.N,GND*
X65532000Y-49276000D03*
G04 #@! TD*
G04 #@! TO.P,C9,1*
G04 #@! TO.N,GND*
X52324000Y-49276000D03*
D14*
G04 #@! TO.P,C9,2*
G04 #@! TO.N,-12V*
X52324000Y-46736000D03*
X52324000Y-44196000D03*
G04 #@! TD*
D16*
G04 #@! TO.P,D1,1*
G04 #@! TO.N,Net-(D1-Pad1)*
X80010000Y-35306000D03*
D10*
G04 #@! TO.P,D1,2*
G04 #@! TO.N,Net-(D1-Pad2)*
X77470000Y-35306000D03*
G04 #@! TD*
D12*
G04 #@! TO.P,D2,2*
G04 #@! TO.N,Net-(D2-Pad2)*
X42926000Y-110490000D03*
D13*
G04 #@! TO.P,D2,1*
G04 #@! TO.N,Net-(D2-Pad1)*
X35306000Y-110490000D03*
G04 #@! TD*
G04 #@! TO.P,D3,1*
G04 #@! TO.N,Net-(D3-Pad1)*
X98044000Y-79248000D03*
D12*
G04 #@! TO.P,D3,2*
G04 #@! TO.N,Net-(D3-Pad2)*
X98044000Y-86868000D03*
G04 #@! TD*
D13*
G04 #@! TO.P,D4,1*
G04 #@! TO.N,Net-(D4-Pad1)*
X98044000Y-100076000D03*
D12*
G04 #@! TO.P,D4,2*
G04 #@! TO.N,Net-(D4-Pad2)*
X98044000Y-107696000D03*
G04 #@! TD*
D17*
G04 #@! TO.P,J1,1*
G04 #@! TO.N,MIDI_IN*
X35560000Y-107188000D03*
D18*
G04 #@! TO.P,J1,2*
G04 #@! TO.N,Net-(A1-Pad2)*
X33020000Y-107188000D03*
G04 #@! TD*
D19*
G04 #@! TO.P,J2,1*
G04 #@! TO.N,+12V*
X55372000Y-94488000D03*
D20*
G04 #@! TO.P,J2,2*
X55372000Y-97028000D03*
G04 #@! TO.P,J2,3*
G04 #@! TO.N,GND*
X57912000Y-94488000D03*
G04 #@! TO.P,J2,4*
X57912000Y-97028000D03*
G04 #@! TO.P,J2,5*
X60452000Y-94488000D03*
G04 #@! TO.P,J2,6*
X60452000Y-97028000D03*
G04 #@! TO.P,J2,7*
X62992000Y-94488000D03*
G04 #@! TO.P,J2,8*
X62992000Y-97028000D03*
G04 #@! TO.P,J2,9*
G04 #@! TO.N,-12V*
X65532000Y-94488000D03*
G04 #@! TO.P,J2,10*
X65532000Y-97028000D03*
G04 #@! TD*
D17*
G04 #@! TO.P,J3,1*
G04 #@! TO.N,ACT_LED*
X32766000Y-36830000D03*
D18*
G04 #@! TO.P,J3,2*
G04 #@! TO.N,ARP_LENGTH*
X32766000Y-39370000D03*
G04 #@! TO.P,J3,3*
G04 #@! TO.N,+5V*
X32766000Y-41910000D03*
G04 #@! TO.P,J3,4*
G04 #@! TO.N,GND*
X32766000Y-44450000D03*
G04 #@! TD*
D17*
G04 #@! TO.P,J4,1*
G04 #@! TO.N,Net-(D1-Pad2)*
X73406000Y-36830000D03*
D18*
G04 #@! TO.P,J4,2*
G04 #@! TO.N,Net-(J4-Pad2)*
X73406000Y-39370000D03*
G04 #@! TO.P,J4,3*
G04 #@! TO.N,+5VA*
X73406000Y-41910000D03*
G04 #@! TO.P,J4,4*
G04 #@! TO.N,GNDA*
X73406000Y-44450000D03*
G04 #@! TD*
G04 #@! TO.P,J5,8*
G04 #@! TO.N,Net-(J5-Pad8)*
X42164000Y-125222000D03*
G04 #@! TO.P,J5,7*
G04 #@! TO.N,Net-(D2-Pad2)*
X44704000Y-125222000D03*
G04 #@! TO.P,J5,6*
G04 #@! TO.N,Net-(J5-Pad6)*
X47244000Y-125222000D03*
G04 #@! TO.P,J5,5*
G04 #@! TO.N,Net-(J5-Pad5)*
X49784000Y-125222000D03*
G04 #@! TO.P,J5,4*
G04 #@! TO.N,Net-(J5-Pad4)*
X52324000Y-125222000D03*
G04 #@! TO.P,J5,3*
G04 #@! TO.N,Net-(J5-Pad3)*
X54864000Y-125222000D03*
G04 #@! TO.P,J5,2*
G04 #@! TO.N,GATE1_OUT*
X57404000Y-125222000D03*
D17*
G04 #@! TO.P,J5,1*
G04 #@! TO.N,GATE2_OUT*
X59944000Y-125222000D03*
G04 #@! TD*
D18*
G04 #@! TO.P,J6,8*
G04 #@! TO.N,Net-(J6-Pad8)*
X82804000Y-125222000D03*
G04 #@! TO.P,J6,7*
G04 #@! TO.N,Net-(J6-Pad7)*
X85344000Y-125222000D03*
G04 #@! TO.P,J6,6*
G04 #@! TO.N,Net-(J6-Pad6)*
X87884000Y-125222000D03*
G04 #@! TO.P,J6,5*
G04 #@! TO.N,Net-(J6-Pad5)*
X90424000Y-125222000D03*
G04 #@! TO.P,J6,4*
G04 #@! TO.N,Net-(J10-PadT)*
X92964000Y-125222000D03*
G04 #@! TO.P,J6,3*
G04 #@! TO.N,Net-(J11-PadT)*
X95504000Y-125222000D03*
G04 #@! TO.P,J6,2*
G04 #@! TO.N,Net-(J6-Pad2)*
X98044000Y-125222000D03*
D17*
G04 #@! TO.P,J6,1*
G04 #@! TO.N,Net-(J6-Pad1)*
X100584000Y-125222000D03*
G04 #@! TD*
D21*
G04 #@! TO.P,J7,R*
G04 #@! TO.N,Net-(J6-Pad8)*
X78740000Y-113844000D03*
D22*
G04 #@! TO.P,J7,S*
G04 #@! TO.N,Net-(J7-PadS)*
X78740000Y-110744000D03*
D23*
G04 #@! TO.P,J7,T*
G04 #@! TO.N,Net-(J6-Pad7)*
X78740000Y-122144000D03*
G04 #@! TD*
G04 #@! TO.P,J8,T*
G04 #@! TO.N,Net-(J6-Pad6)*
X104140000Y-61184000D03*
D22*
G04 #@! TO.P,J8,S*
G04 #@! TO.N,GNDA*
X104140000Y-49784000D03*
D21*
G04 #@! TO.P,J8,TN*
G04 #@! TO.N,Net-(J8-PadTN)*
X104140000Y-52884000D03*
G04 #@! TD*
G04 #@! TO.P,J9,TN*
G04 #@! TO.N,Net-(J9-PadTN)*
X104140000Y-83364000D03*
D22*
G04 #@! TO.P,J9,S*
G04 #@! TO.N,GNDA*
X104140000Y-80264000D03*
D23*
G04 #@! TO.P,J9,T*
G04 #@! TO.N,Net-(J6-Pad5)*
X104140000Y-91664000D03*
G04 #@! TD*
G04 #@! TO.P,J10,T*
G04 #@! TO.N,Net-(J10-PadT)*
X91440000Y-122144000D03*
D22*
G04 #@! TO.P,J10,S*
G04 #@! TO.N,GNDA*
X91440000Y-110744000D03*
D21*
G04 #@! TO.P,J10,TN*
G04 #@! TO.N,Net-(J10-PadTN)*
X91440000Y-113844000D03*
G04 #@! TD*
D23*
G04 #@! TO.P,J11,T*
G04 #@! TO.N,Net-(J11-PadT)*
X104140000Y-122144000D03*
D22*
G04 #@! TO.P,J11,S*
G04 #@! TO.N,GNDA*
X104140000Y-110744000D03*
D21*
G04 #@! TO.P,J11,TN*
G04 #@! TO.N,Net-(J11-PadTN)*
X104140000Y-113844000D03*
G04 #@! TD*
G04 #@! TO.P,J12,TN*
G04 #@! TO.N,Net-(J12-PadTN)*
X104140000Y-68124000D03*
D22*
G04 #@! TO.P,J12,S*
G04 #@! TO.N,GNDA*
X104140000Y-65024000D03*
D23*
G04 #@! TO.P,J12,T*
G04 #@! TO.N,Net-(D3-Pad1)*
X104140000Y-76424000D03*
G04 #@! TD*
D21*
G04 #@! TO.P,J13,TN*
G04 #@! TO.N,Net-(J13-PadTN)*
X104140000Y-98604000D03*
D22*
G04 #@! TO.P,J13,S*
G04 #@! TO.N,GNDA*
X104140000Y-95504000D03*
D23*
G04 #@! TO.P,J13,T*
G04 #@! TO.N,Net-(D4-Pad1)*
X104140000Y-106904000D03*
G04 #@! TD*
G04 #@! TO.P,J16,T*
G04 #@! TO.N,Net-(J16-PadT)*
X78740000Y-61184000D03*
D22*
G04 #@! TO.P,J16,S*
G04 #@! TO.N,GNDA*
X78740000Y-49784000D03*
D21*
G04 #@! TO.P,J16,TN*
G04 #@! TO.N,Net-(J16-PadTN)*
X78740000Y-52884000D03*
G04 #@! TD*
G04 #@! TO.P,J17,TN*
G04 #@! TO.N,Net-(J17-PadTN)*
X91440000Y-52884000D03*
D22*
G04 #@! TO.P,J17,S*
G04 #@! TO.N,GNDA*
X91440000Y-49784000D03*
D23*
G04 #@! TO.P,J17,T*
G04 #@! TO.N,Net-(J17-PadT)*
X91440000Y-61184000D03*
G04 #@! TD*
G04 #@! TO.P,J18,T*
G04 #@! TO.N,Net-(J18-PadT)*
X78740000Y-76424000D03*
D22*
G04 #@! TO.P,J18,S*
G04 #@! TO.N,GNDA*
X78740000Y-65024000D03*
D21*
G04 #@! TO.P,J18,TN*
G04 #@! TO.N,Net-(J18-PadTN)*
X78740000Y-68124000D03*
G04 #@! TD*
G04 #@! TO.P,J19,TN*
G04 #@! TO.N,Net-(J19-PadTN)*
X91440000Y-68124000D03*
D22*
G04 #@! TO.P,J19,S*
G04 #@! TO.N,GNDA*
X91440000Y-65024000D03*
D23*
G04 #@! TO.P,J19,T*
G04 #@! TO.N,Net-(J19-PadT)*
X91440000Y-76424000D03*
G04 #@! TD*
D21*
G04 #@! TO.P,J20,TN*
G04 #@! TO.N,Net-(J20-PadTN)*
X78740000Y-83364000D03*
D22*
G04 #@! TO.P,J20,S*
G04 #@! TO.N,GNDA*
X78740000Y-80264000D03*
D23*
G04 #@! TO.P,J20,T*
G04 #@! TO.N,Net-(J20-PadT)*
X78740000Y-91664000D03*
G04 #@! TD*
G04 #@! TO.P,J21,T*
G04 #@! TO.N,Net-(J21-PadT)*
X91440000Y-91664000D03*
D22*
G04 #@! TO.P,J21,S*
G04 #@! TO.N,GNDA*
X91440000Y-80264000D03*
D21*
G04 #@! TO.P,J21,TN*
G04 #@! TO.N,Net-(J21-PadTN)*
X91440000Y-83364000D03*
G04 #@! TD*
G04 #@! TO.P,J22,TN*
G04 #@! TO.N,Net-(J22-PadTN)*
X78740000Y-98604000D03*
D22*
G04 #@! TO.P,J22,S*
G04 #@! TO.N,GNDA*
X78740000Y-95504000D03*
D23*
G04 #@! TO.P,J22,T*
G04 #@! TO.N,Net-(J22-PadT)*
X78740000Y-106904000D03*
G04 #@! TD*
G04 #@! TO.P,J23,T*
G04 #@! TO.N,Net-(J23-PadT)*
X91440000Y-106904000D03*
D22*
G04 #@! TO.P,J23,S*
G04 #@! TO.N,GNDA*
X91440000Y-95504000D03*
D21*
G04 #@! TO.P,J23,TN*
G04 #@! TO.N,Net-(J23-PadTN)*
X91440000Y-98604000D03*
G04 #@! TD*
D12*
G04 #@! TO.P,R1,2*
G04 #@! TO.N,+5V*
X40640000Y-74676000D03*
D24*
G04 #@! TO.P,R1,1*
G04 #@! TO.N,SDA*
X40640000Y-82296000D03*
G04 #@! TD*
G04 #@! TO.P,R2,1*
G04 #@! TO.N,SCL*
X43942000Y-82296000D03*
D12*
G04 #@! TO.P,R2,2*
G04 #@! TO.N,+5V*
X43942000Y-74676000D03*
G04 #@! TD*
D24*
G04 #@! TO.P,R3,1*
G04 #@! TO.N,Net-(D1-Pad1)*
X83058000Y-43942000D03*
D12*
G04 #@! TO.P,R3,2*
G04 #@! TO.N,GNDA*
X83058000Y-36322000D03*
G04 #@! TD*
D24*
G04 #@! TO.P,R4,1*
G04 #@! TO.N,MIDI_IN*
X37846000Y-121412000D03*
D12*
G04 #@! TO.P,R4,2*
G04 #@! TO.N,+5V*
X37846000Y-113792000D03*
G04 #@! TD*
D24*
G04 #@! TO.P,R5,1*
G04 #@! TO.N,Net-(D3-Pad2)*
X85344000Y-110236000D03*
D12*
G04 #@! TO.P,R5,2*
G04 #@! TO.N,Net-(J6-Pad2)*
X85344000Y-117856000D03*
G04 #@! TD*
G04 #@! TO.P,R6,2*
G04 #@! TO.N,Net-(J6-Pad1)*
X98044000Y-117856000D03*
D24*
G04 #@! TO.P,R6,1*
G04 #@! TO.N,Net-(D4-Pad2)*
X98044000Y-110236000D03*
G04 #@! TD*
D12*
G04 #@! TO.P,R7,2*
G04 #@! TO.N,Net-(J5-Pad8)*
X34544000Y-121412000D03*
D24*
G04 #@! TO.P,R7,1*
G04 #@! TO.N,Net-(D2-Pad1)*
X34544000Y-113792000D03*
G04 #@! TD*
D12*
G04 #@! TO.P,R8,2*
G04 #@! TO.N,Net-(J16-PadT)*
X85344000Y-61976000D03*
D24*
G04 #@! TO.P,R8,1*
G04 #@! TO.N,Net-(J24-Pad4)*
X85344000Y-54356000D03*
G04 #@! TD*
G04 #@! TO.P,R9,1*
G04 #@! TO.N,Net-(J24-Pad3)*
X98044000Y-54356000D03*
D12*
G04 #@! TO.P,R9,2*
G04 #@! TO.N,Net-(J17-PadT)*
X98044000Y-61976000D03*
G04 #@! TD*
G04 #@! TO.P,R10,2*
G04 #@! TO.N,Net-(J18-PadT)*
X85344000Y-72136000D03*
D24*
G04 #@! TO.P,R10,1*
G04 #@! TO.N,Net-(J24-Pad2)*
X85344000Y-64516000D03*
G04 #@! TD*
G04 #@! TO.P,R11,1*
G04 #@! TO.N,Net-(J24-Pad1)*
X98044000Y-64516000D03*
D12*
G04 #@! TO.P,R11,2*
G04 #@! TO.N,Net-(J19-PadT)*
X98044000Y-72136000D03*
G04 #@! TD*
G04 #@! TO.P,R12,2*
G04 #@! TO.N,Net-(J20-PadT)*
X85344000Y-87376000D03*
D24*
G04 #@! TO.P,R12,1*
G04 #@! TO.N,Net-(J25-Pad4)*
X85344000Y-79756000D03*
G04 #@! TD*
G04 #@! TO.P,R13,1*
G04 #@! TO.N,Net-(J25-Pad3)*
X98044000Y-89408000D03*
D12*
G04 #@! TO.P,R13,2*
G04 #@! TO.N,Net-(J21-PadT)*
X98044000Y-97028000D03*
G04 #@! TD*
G04 #@! TO.P,R14,2*
G04 #@! TO.N,Net-(J22-PadT)*
X85344000Y-107696000D03*
D24*
G04 #@! TO.P,R14,1*
G04 #@! TO.N,Net-(J25-Pad2)*
X85344000Y-100076000D03*
G04 #@! TD*
G04 #@! TO.P,R15,1*
G04 #@! TO.N,Net-(J25-Pad1)*
X85344000Y-89916000D03*
D12*
G04 #@! TO.P,R15,2*
G04 #@! TO.N,Net-(J23-PadT)*
X85344000Y-97536000D03*
G04 #@! TD*
D25*
G04 #@! TO.P,U1,1*
G04 #@! TO.N,+12V*
X51054000Y-78994000D03*
D26*
G04 #@! TO.P,U1,2*
G04 #@! TO.N,GND*
X51054000Y-76454000D03*
G04 #@! TO.P,U1,3*
G04 #@! TO.N,+5V*
X51054000Y-73914000D03*
G04 #@! TD*
D13*
G04 #@! TO.P,U2,1*
G04 #@! TO.N,GND*
X44196000Y-97282000D03*
D12*
G04 #@! TO.P,U2,5*
G04 #@! TO.N,SDA*
X36576000Y-89662000D03*
G04 #@! TO.P,U2,2*
G04 #@! TO.N,GND*
X44196000Y-94742000D03*
G04 #@! TO.P,U2,6*
G04 #@! TO.N,SCL*
X36576000Y-92202000D03*
G04 #@! TO.P,U2,3*
G04 #@! TO.N,GND*
X44196000Y-92202000D03*
G04 #@! TO.P,U2,7*
X36576000Y-94742000D03*
G04 #@! TO.P,U2,4*
X44196000Y-89662000D03*
G04 #@! TO.P,U2,8*
G04 #@! TO.N,+5V*
X36576000Y-97282000D03*
G04 #@! TD*
D13*
G04 #@! TO.P,U5,1*
G04 #@! TO.N,Net-(D2-Pad1)*
X41402000Y-113792000D03*
D12*
G04 #@! TO.P,U5,3*
G04 #@! TO.N,GND*
X43942000Y-121412000D03*
G04 #@! TO.P,U5,2*
G04 #@! TO.N,Net-(D2-Pad2)*
X43942000Y-113792000D03*
G04 #@! TO.P,U5,4*
G04 #@! TO.N,MIDI_IN*
X41402000Y-121412000D03*
G04 #@! TD*
G04 #@! TO.P,U6,14*
G04 #@! TO.N,Net-(J14-Pad1)*
X38862000Y-36576000D03*
G04 #@! TO.P,U6,7*
G04 #@! TO.N,Net-(J14-Pad3)*
X46482000Y-51816000D03*
G04 #@! TO.P,U6,13*
G04 #@! TO.N,Net-(J14-Pad1)*
X38862000Y-39116000D03*
G04 #@! TO.P,U6,6*
G04 #@! TO.N,Net-(J14-Pad3)*
X46482000Y-49276000D03*
G04 #@! TO.P,U6,12*
G04 #@! TO.N,Net-(U6-Pad12)*
X38862000Y-41656000D03*
G04 #@! TO.P,U6,5*
G04 #@! TO.N,Net-(U6-Pad5)*
X46482000Y-46736000D03*
G04 #@! TO.P,U6,11*
G04 #@! TO.N,-12V*
X38862000Y-44196000D03*
G04 #@! TO.P,U6,4*
G04 #@! TO.N,+12V*
X46482000Y-44196000D03*
G04 #@! TO.P,U6,10*
G04 #@! TO.N,Net-(U6-Pad10)*
X38862000Y-46736000D03*
G04 #@! TO.P,U6,3*
G04 #@! TO.N,Net-(U6-Pad3)*
X46482000Y-41656000D03*
G04 #@! TO.P,U6,9*
G04 #@! TO.N,Net-(J14-Pad2)*
X38862000Y-49276000D03*
G04 #@! TO.P,U6,2*
G04 #@! TO.N,Net-(J14-Pad4)*
X46482000Y-39116000D03*
G04 #@! TO.P,U6,8*
G04 #@! TO.N,Net-(J14-Pad2)*
X38862000Y-51816000D03*
D13*
G04 #@! TO.P,U6,1*
G04 #@! TO.N,Net-(J14-Pad4)*
X46482000Y-36576000D03*
G04 #@! TD*
G04 #@! TO.P,U7,1*
G04 #@! TO.N,Net-(U6-Pad5)*
X51308000Y-56388000D03*
D12*
G04 #@! TO.P,U7,9*
G04 #@! TO.N,Net-(U7-Pad9)*
X69088000Y-64008000D03*
G04 #@! TO.P,U7,2*
G04 #@! TO.N,Net-(U6-Pad10)*
X53848000Y-56388000D03*
G04 #@! TO.P,U7,10*
G04 #@! TO.N,+5V*
X66548000Y-64008000D03*
G04 #@! TO.P,U7,3*
G04 #@! TO.N,Net-(U6-Pad12)*
X56388000Y-56388000D03*
G04 #@! TO.P,U7,11*
G04 #@! TO.N,595_SRCLK*
X64008000Y-64008000D03*
G04 #@! TO.P,U7,4*
G04 #@! TO.N,Net-(U7-Pad4)*
X58928000Y-56388000D03*
G04 #@! TO.P,U7,12*
G04 #@! TO.N,595_RCLK*
X61468000Y-64008000D03*
G04 #@! TO.P,U7,5*
G04 #@! TO.N,Net-(U7-Pad5)*
X61468000Y-56388000D03*
G04 #@! TO.P,U7,13*
G04 #@! TO.N,GND*
X58928000Y-64008000D03*
G04 #@! TO.P,U7,6*
G04 #@! TO.N,Net-(U7-Pad6)*
X64008000Y-56388000D03*
G04 #@! TO.P,U7,14*
G04 #@! TO.N,595_SER*
X56388000Y-64008000D03*
G04 #@! TO.P,U7,7*
G04 #@! TO.N,Net-(U7-Pad7)*
X66548000Y-56388000D03*
G04 #@! TO.P,U7,15*
G04 #@! TO.N,Net-(U6-Pad3)*
X53848000Y-64008000D03*
G04 #@! TO.P,U7,8*
G04 #@! TO.N,GND*
X69088000Y-56388000D03*
G04 #@! TO.P,U7,16*
G04 #@! TO.N,+5V*
X51308000Y-64008000D03*
G04 #@! TD*
D13*
G04 #@! TO.P,U8,1*
G04 #@! TO.N,Net-(J15-Pad4)*
X62738000Y-36553299D03*
D12*
G04 #@! TO.P,U8,8*
G04 #@! TO.N,Net-(J15-Pad2)*
X55118000Y-51793299D03*
G04 #@! TO.P,U8,2*
G04 #@! TO.N,Net-(J15-Pad4)*
X62738000Y-39093299D03*
G04 #@! TO.P,U8,9*
G04 #@! TO.N,Net-(J15-Pad2)*
X55118000Y-49253299D03*
G04 #@! TO.P,U8,3*
G04 #@! TO.N,Net-(U7-Pad4)*
X62738000Y-41633299D03*
G04 #@! TO.P,U8,10*
G04 #@! TO.N,Net-(U7-Pad6)*
X55118000Y-46713299D03*
G04 #@! TO.P,U8,4*
G04 #@! TO.N,+12V*
X62738000Y-44173299D03*
G04 #@! TO.P,U8,11*
G04 #@! TO.N,-12V*
X55118000Y-44173299D03*
G04 #@! TO.P,U8,5*
G04 #@! TO.N,Net-(U7-Pad5)*
X62738000Y-46713299D03*
G04 #@! TO.P,U8,12*
G04 #@! TO.N,Net-(U7-Pad7)*
X55118000Y-41633299D03*
G04 #@! TO.P,U8,6*
G04 #@! TO.N,Net-(J15-Pad3)*
X62738000Y-49253299D03*
G04 #@! TO.P,U8,13*
G04 #@! TO.N,Net-(J15-Pad1)*
X55118000Y-39093299D03*
G04 #@! TO.P,U8,7*
G04 #@! TO.N,Net-(J15-Pad3)*
X62738000Y-51793299D03*
G04 #@! TO.P,U8,14*
G04 #@! TO.N,Net-(J15-Pad1)*
X55118000Y-36553299D03*
G04 #@! TD*
D13*
G04 #@! TO.P,U3,1*
G04 #@! TO.N,+5V*
X69203560Y-105975405D03*
D12*
G04 #@! TO.P,U3,8*
G04 #@! TO.N,GND*
X61583560Y-121215405D03*
G04 #@! TO.P,U3,2*
G04 #@! TO.N,Net-(U3-Pad2)*
X69203560Y-108515405D03*
G04 #@! TO.P,U3,9*
G04 #@! TO.N,Net-(U3-Pad9)*
X61583560Y-118675405D03*
G04 #@! TO.P,U3,3*
G04 #@! TO.N,DAC1_CS*
X69203560Y-111055405D03*
G04 #@! TO.P,U3,10*
G04 #@! TO.N,Net-(J5-Pad5)*
X61583560Y-116135405D03*
G04 #@! TO.P,U3,4*
G04 #@! TO.N,DAC_SCK*
X69203560Y-113595405D03*
G04 #@! TO.P,U3,11*
G04 #@! TO.N,+5V*
X61583560Y-113595405D03*
G04 #@! TO.P,U3,5*
G04 #@! TO.N,DAC_SDI*
X69203560Y-116135405D03*
G04 #@! TO.P,U3,12*
G04 #@! TO.N,GND*
X61583560Y-111055405D03*
G04 #@! TO.P,U3,6*
G04 #@! TO.N,Net-(U3-Pad6)*
X69203560Y-118675405D03*
G04 #@! TO.P,U3,13*
G04 #@! TO.N,+5V*
X61583560Y-108515405D03*
G04 #@! TO.P,U3,7*
G04 #@! TO.N,Net-(U3-Pad7)*
X69203560Y-121215405D03*
G04 #@! TO.P,U3,14*
G04 #@! TO.N,Net-(J5-Pad6)*
X61583560Y-105975405D03*
G04 #@! TD*
G04 #@! TO.P,U4,14*
G04 #@! TO.N,Net-(J5-Pad4)*
X51169560Y-105975405D03*
G04 #@! TO.P,U4,7*
G04 #@! TO.N,Net-(U4-Pad7)*
X58789560Y-121215405D03*
G04 #@! TO.P,U4,13*
G04 #@! TO.N,+5V*
X51169560Y-108515405D03*
G04 #@! TO.P,U4,6*
G04 #@! TO.N,Net-(U4-Pad6)*
X58789560Y-118675405D03*
G04 #@! TO.P,U4,12*
G04 #@! TO.N,GND*
X51169560Y-111055405D03*
G04 #@! TO.P,U4,5*
G04 #@! TO.N,DAC_SDI*
X58789560Y-116135405D03*
G04 #@! TO.P,U4,11*
G04 #@! TO.N,+5V*
X51169560Y-113595405D03*
G04 #@! TO.P,U4,4*
G04 #@! TO.N,DAC_SCK*
X58789560Y-113595405D03*
G04 #@! TO.P,U4,10*
G04 #@! TO.N,Net-(J5-Pad3)*
X51169560Y-116135405D03*
G04 #@! TO.P,U4,3*
G04 #@! TO.N,DAC2_CS*
X58789560Y-111055405D03*
G04 #@! TO.P,U4,9*
G04 #@! TO.N,Net-(U4-Pad9)*
X51169560Y-118675405D03*
G04 #@! TO.P,U4,2*
G04 #@! TO.N,Net-(U4-Pad2)*
X58789560Y-108515405D03*
G04 #@! TO.P,U4,8*
G04 #@! TO.N,GND*
X51169560Y-121215405D03*
D13*
G04 #@! TO.P,U4,1*
G04 #@! TO.N,+5V*
X58789560Y-105975405D03*
G04 #@! TD*
D18*
G04 #@! TO.P,J14,4*
G04 #@! TO.N,Net-(J14-Pad4)*
X40386000Y-32766000D03*
G04 #@! TO.P,J14,3*
G04 #@! TO.N,Net-(J14-Pad3)*
X37846000Y-32766000D03*
G04 #@! TO.P,J14,2*
G04 #@! TO.N,Net-(J14-Pad2)*
X35306000Y-32766000D03*
D17*
G04 #@! TO.P,J14,1*
G04 #@! TO.N,Net-(J14-Pad1)*
X32766000Y-32766000D03*
G04 #@! TD*
G04 #@! TO.P,J15,1*
G04 #@! TO.N,Net-(J15-Pad1)*
X61214000Y-32766000D03*
D18*
G04 #@! TO.P,J15,2*
G04 #@! TO.N,Net-(J15-Pad2)*
X63754000Y-32766000D03*
G04 #@! TO.P,J15,3*
G04 #@! TO.N,Net-(J15-Pad3)*
X66294000Y-32766000D03*
G04 #@! TO.P,J15,4*
G04 #@! TO.N,Net-(J15-Pad4)*
X68834000Y-32766000D03*
G04 #@! TD*
G04 #@! TO.P,J24,4*
G04 #@! TO.N,Net-(J24-Pad4)*
X81026000Y-32766000D03*
G04 #@! TO.P,J24,3*
G04 #@! TO.N,Net-(J24-Pad3)*
X78486000Y-32766000D03*
G04 #@! TO.P,J24,2*
G04 #@! TO.N,Net-(J24-Pad2)*
X75946000Y-32766000D03*
D17*
G04 #@! TO.P,J24,1*
G04 #@! TO.N,Net-(J24-Pad1)*
X73406000Y-32766000D03*
G04 #@! TD*
G04 #@! TO.P,J25,1*
G04 #@! TO.N,Net-(J25-Pad1)*
X101854000Y-32766000D03*
D18*
G04 #@! TO.P,J25,2*
G04 #@! TO.N,Net-(J25-Pad2)*
X104394000Y-32766000D03*
G04 #@! TO.P,J25,3*
G04 #@! TO.N,Net-(J25-Pad3)*
X106934000Y-32766000D03*
G04 #@! TO.P,J25,4*
G04 #@! TO.N,Net-(J25-Pad4)*
X109474000Y-32766000D03*
G04 #@! TD*
D27*
G04 #@! TO.N,ARP_LENGTH*
X32512000Y-46736000D03*
G04 #@! TO.N,GND*
X45974000Y-54261021D03*
X48006000Y-121158000D03*
X45937010Y-121158022D03*
G04 #@! TO.N,595_SER*
X45720000Y-61722000D03*
X38100000Y-79756000D03*
G04 #@! TO.N,595_SRCLK*
X36830000Y-78232000D03*
X43336713Y-59918034D03*
G04 #@! TO.N,595_RCLK*
X44196000Y-60452000D03*
X37592000Y-76454000D03*
G04 #@! TO.N,DAC2_CS*
X40195838Y-79523689D03*
G04 #@! TO.N,DAC1_CS*
X40799021Y-71678614D03*
G04 #@! TO.N,GATE1_OUT*
X53848000Y-113341689D03*
G04 #@! TO.N,-12V*
X49530000Y-40132000D03*
G04 #@! TO.N,Net-(D1-Pad1)*
X83058000Y-40386000D03*
G04 #@! TO.N,Net-(J5-Pad6)*
X54864000Y-117094000D03*
G04 #@! TO.N,Net-(U6-Pad12)*
X40894000Y-46228000D03*
G04 #@! TO.N,Net-(U6-Pad10)*
X40523039Y-49168358D03*
G04 #@! TO.N,Net-(U7-Pad7)*
X58166000Y-48006000D03*
G04 #@! TO.N,Net-(J24-Pad3)*
X82804000Y-38100000D03*
G04 #@! TO.N,Net-(J24-Pad1)*
X85598000Y-59690000D03*
G04 #@! TO.N,Net-(J25-Pad4)*
X101092000Y-75946000D03*
G04 #@! TD*
D28*
G04 #@! TO.N,Net-(A1-Pad2)*
X33565999Y-95795999D02*
X32766000Y-94996000D01*
X33891001Y-96121001D02*
X33565999Y-95795999D01*
X33891001Y-106316999D02*
X33891001Y-96121001D01*
X33020000Y-107188000D02*
X33891001Y-106316999D01*
G04 #@! TO.N,ARP_LENGTH*
X48805999Y-68796001D02*
X48006000Y-69596000D01*
X49530000Y-68072000D02*
X48805999Y-68796001D01*
X45974000Y-57912000D02*
X49530000Y-61468000D01*
X38354000Y-57912000D02*
X45974000Y-57912000D01*
X49530000Y-61468000D02*
X49530000Y-68072000D01*
X32512000Y-46736000D02*
X32512000Y-52070000D01*
X32512000Y-52070000D02*
X38354000Y-57912000D01*
D29*
G04 #@! TO.N,GND*
X65024000Y-49784000D02*
X65532000Y-49276000D01*
X49276000Y-50959021D02*
X46373999Y-53861022D01*
X49276000Y-49276000D02*
X49276000Y-50959021D01*
X46373999Y-53861022D02*
X45974000Y-54261021D01*
X58928000Y-64262000D02*
X56388000Y-66802000D01*
X58928000Y-64008000D02*
X58928000Y-64262000D01*
X48063405Y-121215405D02*
X48006000Y-121158000D01*
X51169560Y-121215405D02*
X48063405Y-121215405D01*
X45683032Y-121412000D02*
X45937010Y-121158022D01*
X43942000Y-121412000D02*
X45683032Y-121412000D01*
X60452000Y-100076000D02*
X60452000Y-97028000D01*
X62992000Y-102616000D02*
X60452000Y-100076000D01*
D28*
G04 #@! TO.N,595_SER*
X38354000Y-78936315D02*
X38100000Y-79190315D01*
X38354000Y-69088000D02*
X38354000Y-78936315D01*
X38100000Y-79190315D02*
X38100000Y-79756000D01*
X45720000Y-61722000D02*
X38354000Y-69088000D01*
G04 #@! TO.N,595_SRCLK*
X36830000Y-66424747D02*
X42936714Y-60318033D01*
X42936714Y-60318033D02*
X43336713Y-59918034D01*
X36830000Y-78232000D02*
X36830000Y-66424747D01*
G04 #@! TO.N,SCL*
X48006000Y-82296000D02*
X43942000Y-82296000D01*
G04 #@! TO.N,595_RCLK*
X37592000Y-75888315D02*
X37592000Y-76454000D01*
X44196000Y-60452000D02*
X37592000Y-67056000D01*
X37592000Y-67056000D02*
X37592000Y-75888315D01*
G04 #@! TO.N,DAC2_CS*
X54922155Y-107188000D02*
X48768000Y-107188000D01*
X48768000Y-107188000D02*
X39514999Y-97934999D01*
X58789560Y-111055405D02*
X54922155Y-107188000D01*
X40195838Y-81075160D02*
X40195838Y-80089374D01*
X39514999Y-81755999D02*
X40195838Y-81075160D01*
X39514999Y-97934999D02*
X39514999Y-81755999D01*
X40195838Y-80089374D02*
X40195838Y-79523689D01*
G04 #@! TO.N,ACT_LED*
X31590999Y-70960999D02*
X31966001Y-71336001D01*
X31590999Y-36905001D02*
X31590999Y-70960999D01*
X31966001Y-71336001D02*
X32766000Y-72136000D01*
X31666000Y-36830000D02*
X31590999Y-36905001D01*
X32766000Y-36830000D02*
X31666000Y-36830000D01*
G04 #@! TO.N,GATE2_OUT*
X59944000Y-126322000D02*
X59944000Y-125222000D01*
X59774000Y-126492000D02*
X59944000Y-126322000D01*
X37701001Y-82028233D02*
X37701001Y-103233001D01*
X35204976Y-79532208D02*
X37701001Y-82028233D01*
X35204976Y-72034976D02*
X35204976Y-79532208D01*
X46736000Y-112268000D02*
X46736000Y-122174000D01*
X32766000Y-69596000D02*
X35204976Y-72034976D01*
X37701001Y-103233001D02*
X46736000Y-112268000D01*
X45974000Y-125691002D02*
X46774998Y-126492000D01*
X46774998Y-126492000D02*
X59774000Y-126492000D01*
X46736000Y-122174000D02*
X45974000Y-122936000D01*
X45974000Y-122936000D02*
X45974000Y-125691002D01*
G04 #@! TO.N,DAC1_CS*
X69203560Y-111055405D02*
X69284595Y-111055405D01*
X62998559Y-104850404D02*
X68403561Y-110255406D01*
X51709561Y-104850404D02*
X62998559Y-104850404D01*
X50237157Y-103378000D02*
X51709561Y-104850404D01*
X68403561Y-110255406D02*
X69203560Y-111055405D01*
X46736000Y-103378000D02*
X50237157Y-103378000D01*
X42273001Y-98915001D02*
X46736000Y-103378000D01*
X42273001Y-73152594D02*
X42273001Y-98915001D01*
X40799021Y-71678614D02*
X42273001Y-73152594D01*
G04 #@! TO.N,DAC_SDI*
X68403561Y-115335406D02*
X69203560Y-116135405D01*
X67788561Y-114720406D02*
X68403561Y-115335406D01*
X60204559Y-114720406D02*
X67788561Y-114720406D01*
X58789560Y-116135405D02*
X60204559Y-114720406D01*
X57989561Y-115335406D02*
X58789560Y-116135405D01*
X32766000Y-64516000D02*
X35654987Y-67404987D01*
X50038000Y-114808000D02*
X57462155Y-114808000D01*
X38157991Y-102927991D02*
X50038000Y-114808000D01*
X35654987Y-67404987D02*
X35654987Y-79274402D01*
X38157991Y-81777406D02*
X38157991Y-102927991D01*
X57462155Y-114808000D02*
X57989561Y-115335406D01*
X35654987Y-79274402D02*
X38157991Y-81777406D01*
D29*
G04 #@! TO.N,+5V*
X51054000Y-67056000D02*
X51308000Y-66802000D01*
X49065999Y-73425999D02*
X45192001Y-73425999D01*
X51308000Y-66802000D02*
X51308000Y-64008000D01*
X45192001Y-73425999D02*
X44741999Y-73876001D01*
X59043560Y-105975405D02*
X61583560Y-108515405D01*
X58789560Y-105975405D02*
X59043560Y-105975405D01*
X37846000Y-113792000D02*
X37846000Y-106963998D01*
X37846000Y-106963998D02*
X36576000Y-105693998D01*
X44741999Y-73876001D02*
X43942000Y-74676000D01*
X36576000Y-105693998D02*
X36576000Y-98413370D01*
X36576000Y-98413370D02*
X36576000Y-97282000D01*
X51054000Y-73914000D02*
X49554000Y-73914000D01*
X49554000Y-73914000D02*
X49065999Y-73425999D01*
X51054000Y-73914000D02*
X51054000Y-67056000D01*
D28*
X34232011Y-43376011D02*
X33615999Y-42759999D01*
X45086411Y-56388000D02*
X37846000Y-56388000D01*
X34232011Y-52774011D02*
X34232011Y-43376011D01*
X51308000Y-62609589D02*
X45086411Y-56388000D01*
X51308000Y-64008000D02*
X51308000Y-62609589D01*
X37846000Y-56388000D02*
X34232011Y-52774011D01*
X33615999Y-42759999D02*
X32766000Y-41910000D01*
D29*
X57519560Y-101116000D02*
X55717560Y-99314000D01*
X57519560Y-102616000D02*
X57519560Y-101116000D01*
X55717560Y-99314000D02*
X54356000Y-99314000D01*
X54356000Y-99314000D02*
X50546000Y-95504000D01*
X50546000Y-92456000D02*
X48006000Y-89916000D01*
X50546000Y-95504000D02*
X50546000Y-92456000D01*
X62484000Y-87860000D02*
X63754000Y-89130000D01*
X62484000Y-86360000D02*
X62484000Y-87860000D01*
X63754000Y-89130000D02*
X63754000Y-89154000D01*
X68072000Y-93472000D02*
X68072000Y-102616000D01*
X63754000Y-89154000D02*
X68072000Y-93472000D01*
D28*
G04 #@! TO.N,GATE1_OUT*
X38614977Y-100923789D02*
X47534998Y-109843810D01*
X32766000Y-61976000D02*
X36104998Y-65314998D01*
X36104998Y-65314998D02*
X36104998Y-79088002D01*
X36104998Y-79088002D02*
X38614977Y-81597981D01*
X38614977Y-81597981D02*
X38614977Y-100923789D01*
X53448001Y-112941690D02*
X53848000Y-113341689D01*
X52774311Y-112268000D02*
X53448001Y-112941690D01*
X48456996Y-112268000D02*
X52774311Y-112268000D01*
X47534998Y-109843810D02*
X47534998Y-111346002D01*
X47534998Y-111346002D02*
X48456996Y-112268000D01*
G04 #@! TO.N,DAC_SCK*
X59589559Y-112795406D02*
X58789560Y-113595405D01*
X59914561Y-112470404D02*
X59589559Y-112795406D01*
X66947189Y-112470404D02*
X59914561Y-112470404D01*
X68072190Y-113595405D02*
X66947189Y-112470404D01*
X69203560Y-113595405D02*
X68072190Y-113595405D01*
X58789560Y-113595405D02*
X54922155Y-109728000D01*
X47206001Y-62775999D02*
X48006000Y-61976000D01*
X39470828Y-75861415D02*
X39470828Y-70511173D01*
X39064988Y-99770988D02*
X39064988Y-81368573D01*
X49022000Y-109728000D02*
X39064988Y-99770988D01*
X39470828Y-77300585D02*
X39529012Y-77242401D01*
X39529012Y-75919599D02*
X39470828Y-75861415D01*
X39529012Y-77242401D02*
X39529012Y-75919599D01*
X39470828Y-80962733D02*
X39470828Y-77300585D01*
X39470828Y-70511173D02*
X47206001Y-62775999D01*
X54922155Y-109728000D02*
X49022000Y-109728000D01*
X39064988Y-81368573D02*
X39470828Y-80962733D01*
D29*
G04 #@! TO.N,+12V*
X49276000Y-46736000D02*
X49276000Y-44196000D01*
X46482000Y-44196000D02*
X49276000Y-44196000D01*
X51674489Y-40383298D02*
X64767298Y-40383298D01*
X49276000Y-42781787D02*
X51674489Y-40383298D01*
X49276000Y-44196000D02*
X49276000Y-42781787D01*
X65532000Y-41148000D02*
X65532000Y-44196000D01*
X64767298Y-40383298D02*
X65532000Y-41148000D01*
X65509299Y-44173299D02*
X65532000Y-44196000D01*
X62738000Y-44173299D02*
X65509299Y-44173299D01*
X65532000Y-46736000D02*
X65532000Y-44196000D01*
X55372000Y-97028000D02*
X55372000Y-94488000D01*
X52578000Y-93057600D02*
X52578000Y-87860000D01*
X54008400Y-94488000D02*
X52578000Y-93057600D01*
X52578000Y-87860000D02*
X52578000Y-86360000D01*
X55372000Y-94488000D02*
X54008400Y-94488000D01*
X51101500Y-78994000D02*
X51054000Y-78994000D01*
X52578000Y-80470500D02*
X51101500Y-78994000D01*
X52578000Y-86360000D02*
X52578000Y-80470500D01*
X66531999Y-45195999D02*
X65532000Y-44196000D01*
X51054000Y-78994000D02*
X53412002Y-78994000D01*
X53412002Y-78994000D02*
X67798001Y-64608001D01*
X67798001Y-64608001D02*
X67798001Y-46462001D01*
X67798001Y-46462001D02*
X66531999Y-45195999D01*
G04 #@! TO.N,-12V*
X36068000Y-46736000D02*
X36068000Y-44196000D01*
X38862000Y-44196000D02*
X36068000Y-44196000D01*
X52324000Y-46736000D02*
X52324000Y-44196000D01*
X55095299Y-44196000D02*
X55118000Y-44173299D01*
X52324000Y-44196000D02*
X55095299Y-44196000D01*
X36068000Y-42164000D02*
X36068000Y-44196000D01*
X49295999Y-40366001D02*
X37865999Y-40366001D01*
X37865999Y-40366001D02*
X36068000Y-42164000D01*
X49530000Y-40132000D02*
X49295999Y-40366001D01*
X65532000Y-97028000D02*
X65532000Y-94488000D01*
X49929999Y-39732001D02*
X49530000Y-40132000D01*
X51818702Y-37843298D02*
X49929999Y-39732001D01*
X70338001Y-44843298D02*
X63338001Y-37843298D01*
X70338001Y-64608001D02*
X70338001Y-44843298D01*
X60198000Y-74748002D02*
X70338001Y-64608001D01*
X60198000Y-89154000D02*
X60198000Y-74748002D01*
X63338001Y-37843298D02*
X51818702Y-37843298D01*
X65532000Y-94488000D02*
X60198000Y-89154000D01*
D28*
G04 #@! TO.N,Net-(D1-Pad1)*
X83058000Y-40386000D02*
X83058000Y-43942000D01*
G04 #@! TO.N,Net-(D3-Pad1)*
X101316000Y-79248000D02*
X104140000Y-76424000D01*
X98044000Y-79248000D02*
X101316000Y-79248000D01*
G04 #@! TO.N,Net-(D3-Pad2)*
X85344000Y-110236000D02*
X94996000Y-100584000D01*
X94996000Y-89916000D02*
X98044000Y-86868000D01*
X94996000Y-100584000D02*
X94996000Y-89916000D01*
G04 #@! TO.N,Net-(D4-Pad1)*
X98044000Y-100808000D02*
X98044000Y-100076000D01*
X104140000Y-106904000D02*
X98044000Y-100808000D01*
G04 #@! TO.N,Net-(D4-Pad2)*
X98044000Y-109104630D02*
X98044000Y-107696000D01*
X98044000Y-110236000D02*
X98044000Y-109104630D01*
G04 #@! TO.N,MIDI_IN*
X41402000Y-121412000D02*
X37846000Y-121412000D01*
X35560000Y-108288000D02*
X35560000Y-107188000D01*
X36431001Y-109159001D02*
X35560000Y-108288000D01*
X36431001Y-118865631D02*
X36431001Y-109159001D01*
X37846000Y-120280630D02*
X36431001Y-118865631D01*
X37846000Y-121412000D02*
X37846000Y-120280630D01*
G04 #@! TO.N,Net-(J5-Pad6)*
X54864000Y-117659685D02*
X54864000Y-117094000D01*
X50002968Y-124046999D02*
X54864000Y-119185967D01*
X48419001Y-124046999D02*
X50002968Y-124046999D01*
X54864000Y-119185967D02*
X54864000Y-117659685D01*
X47244000Y-125222000D02*
X48419001Y-124046999D01*
G04 #@! TO.N,Net-(J5-Pad5)*
X60783561Y-116935404D02*
X61583560Y-116135405D01*
X60458559Y-117260406D02*
X60783561Y-116935404D01*
X57745594Y-117260406D02*
X60458559Y-117260406D01*
X49784000Y-125222000D02*
X57745594Y-117260406D01*
G04 #@! TO.N,Net-(J6-Pad8)*
X78740000Y-115269000D02*
X78740000Y-113844000D01*
X82804000Y-125222000D02*
X77978000Y-125222000D01*
X76708000Y-117301000D02*
X78740000Y-115269000D01*
X77978000Y-125222000D02*
X76708000Y-123952000D01*
X76708000Y-123952000D02*
X76708000Y-117301000D01*
G04 #@! TO.N,Net-(J6-Pad7)*
X82266000Y-122144000D02*
X78740000Y-122144000D01*
X85344000Y-125222000D02*
X82266000Y-122144000D01*
G04 #@! TO.N,Net-(J6-Pad6)*
X89059001Y-126397001D02*
X105250999Y-126397001D01*
X87884000Y-125222000D02*
X89059001Y-126397001D01*
X105250999Y-126397001D02*
X107696000Y-123952000D01*
X107696000Y-64740000D02*
X104140000Y-61184000D01*
X107696000Y-123952000D02*
X107696000Y-64740000D01*
G04 #@! TO.N,Net-(J10-PadT)*
X92964000Y-123668000D02*
X91440000Y-122144000D01*
X92964000Y-125222000D02*
X92964000Y-123668000D01*
G04 #@! TO.N,Net-(J6-Pad2)*
X93472000Y-117856000D02*
X85344000Y-117856000D01*
X98044000Y-122428000D02*
X93472000Y-117856000D01*
X98044000Y-125222000D02*
X98044000Y-122428000D01*
G04 #@! TO.N,Net-(J6-Pad1)*
X100584000Y-120396000D02*
X98044000Y-117856000D01*
X100584000Y-125222000D02*
X100584000Y-120396000D01*
G04 #@! TO.N,Net-(J16-PadT)*
X85344000Y-61976000D02*
X84617599Y-62702401D01*
X84617599Y-62702401D02*
X84495389Y-62702401D01*
X83768988Y-61976000D02*
X79532000Y-61976000D01*
X84495389Y-62702401D02*
X83768988Y-61976000D01*
X79532000Y-61976000D02*
X78740000Y-61184000D01*
G04 #@! TO.N,Net-(J17-PadT)*
X92232000Y-61976000D02*
X91440000Y-61184000D01*
X98044000Y-61976000D02*
X92232000Y-61976000D01*
G04 #@! TO.N,Net-(J18-PadT)*
X83028000Y-72136000D02*
X85344000Y-72136000D01*
X78740000Y-76424000D02*
X83028000Y-72136000D01*
G04 #@! TO.N,Net-(J19-PadT)*
X93756000Y-76424000D02*
X98044000Y-72136000D01*
X91440000Y-76424000D02*
X93756000Y-76424000D01*
G04 #@! TO.N,Net-(J20-PadT)*
X83028000Y-87376000D02*
X85344000Y-87376000D01*
X78740000Y-91664000D02*
X83028000Y-87376000D01*
G04 #@! TO.N,Net-(J22-PadT)*
X79532000Y-107696000D02*
X78740000Y-106904000D01*
X85344000Y-107696000D02*
X79532000Y-107696000D01*
G04 #@! TO.N,Net-(U6-Pad12)*
X38862000Y-41656000D02*
X40894000Y-43688000D01*
X40894000Y-45662315D02*
X40894000Y-46228000D01*
X40894000Y-43688000D02*
X40894000Y-45662315D01*
G04 #@! TO.N,Net-(U6-Pad5)*
X44450000Y-54413004D02*
X44450000Y-48768000D01*
X51308000Y-56388000D02*
X50258000Y-56388000D01*
X49205002Y-55335002D02*
X45371998Y-55335002D01*
X45682001Y-47535999D02*
X46482000Y-46736000D01*
X44450000Y-48768000D02*
X45682001Y-47535999D01*
X45371998Y-55335002D02*
X44450000Y-54413004D01*
X50258000Y-56388000D02*
X49205002Y-55335002D01*
G04 #@! TO.N,Net-(U6-Pad10)*
X38862000Y-46736000D02*
X40523039Y-48397039D01*
X40523039Y-48602673D02*
X40523039Y-49168358D01*
X40523039Y-48397039D02*
X40523039Y-48602673D01*
G04 #@! TO.N,Net-(U6-Pad3)*
X53848000Y-64008000D02*
X53408585Y-64008000D01*
X45682001Y-42455999D02*
X46482000Y-41656000D01*
X43688000Y-44450000D02*
X45682001Y-42455999D01*
X53408585Y-64008000D02*
X43688000Y-54287415D01*
X43688000Y-54287415D02*
X43688000Y-44450000D01*
G04 #@! TO.N,Net-(U7-Pad4)*
X58928000Y-45443299D02*
X58928000Y-56388000D01*
X62738000Y-41633299D02*
X58928000Y-45443299D01*
G04 #@! TO.N,Net-(U7-Pad5)*
X61468000Y-47983299D02*
X61468000Y-56388000D01*
X62738000Y-46713299D02*
X61468000Y-47983299D01*
G04 #@! TO.N,Net-(U7-Pad6)*
X57802999Y-56928001D02*
X59040998Y-58166000D01*
X57802999Y-49398298D02*
X57802999Y-56928001D01*
X55118000Y-46713299D02*
X57802999Y-49398298D01*
X62230000Y-58166000D02*
X64008000Y-56388000D01*
X59040998Y-58166000D02*
X62230000Y-58166000D01*
G04 #@! TO.N,Net-(U7-Pad7)*
X58166000Y-44681299D02*
X58166000Y-48006000D01*
X55118000Y-41633299D02*
X58166000Y-44681299D01*
G04 #@! TO.N,Net-(J5-Pad8)*
X35343999Y-122211999D02*
X34544000Y-121412000D01*
X37504001Y-124372001D02*
X35343999Y-122211999D01*
X41314001Y-124372001D02*
X37504001Y-124372001D01*
X42164000Y-125222000D02*
X41314001Y-124372001D01*
G04 #@! TO.N,Net-(J24-Pad4)*
X81482988Y-33222988D02*
X81026000Y-32766000D01*
X81482988Y-50494988D02*
X81482988Y-33222988D01*
X85344000Y-54356000D02*
X81482988Y-50494988D01*
G04 #@! TO.N,Net-(J24-Pad3)*
X97244001Y-55155999D02*
X88937999Y-55155999D01*
X98044000Y-54356000D02*
X97244001Y-55155999D01*
X81932999Y-38971001D02*
X82804000Y-38100000D01*
X88937999Y-55155999D02*
X81932999Y-48150999D01*
X81932999Y-48150999D02*
X81932999Y-38971001D01*
G04 #@! TO.N,Net-(J24-Pad2)*
X86143999Y-63716001D02*
X85344000Y-64516000D01*
X87122000Y-62738000D02*
X86143999Y-63716001D01*
X87122000Y-58435413D02*
X87122000Y-62738000D01*
X75946000Y-32766000D02*
X75946000Y-40386000D01*
X75946000Y-40386000D02*
X81032970Y-45472970D01*
X81032970Y-45472970D02*
X81032970Y-52346383D01*
X81032970Y-52346383D02*
X87122000Y-58435413D01*
G04 #@! TO.N,Net-(J24-Pad1)*
X85598000Y-57547823D02*
X85598000Y-59690000D01*
X80582961Y-52532784D02*
X85598000Y-57547823D01*
X80582960Y-45784960D02*
X80582961Y-52532784D01*
X75184000Y-35644000D02*
X75184000Y-40386000D01*
X73406000Y-32766000D02*
X73406000Y-33866000D01*
X73406000Y-33866000D02*
X75184000Y-35644000D01*
X75184000Y-40386000D02*
X80582960Y-45784960D01*
G04 #@! TO.N,Net-(J25-Pad1)*
X101854000Y-38222769D02*
X99741967Y-40334800D01*
X101854000Y-32766000D02*
X101854000Y-38222769D01*
X99741967Y-40334800D02*
X99741967Y-72452051D01*
X99741967Y-72452051D02*
X93472000Y-78722018D01*
X86475370Y-89916000D02*
X85344000Y-89916000D01*
X93472000Y-85852000D02*
X89408000Y-89916000D01*
X93472000Y-78722018D02*
X93472000Y-85852000D01*
X89408000Y-89916000D02*
X86475370Y-89916000D01*
G04 #@! TO.N,Net-(J25-Pad2)*
X93922011Y-86417989D02*
X87630000Y-92710000D01*
X87630000Y-92710000D02*
X87630000Y-97790000D01*
X86143999Y-99276001D02*
X85344000Y-100076000D01*
X104394000Y-36319180D02*
X100191978Y-40521200D01*
X87630000Y-97790000D02*
X86143999Y-99276001D01*
X93922011Y-79685579D02*
X93922011Y-86417989D01*
X100191978Y-40521200D02*
X100191978Y-73415612D01*
X100191978Y-73415612D02*
X93922011Y-79685579D01*
X104394000Y-32766000D02*
X104394000Y-36319180D01*
G04 #@! TO.N,Net-(J25-Pad3)*
X99169001Y-84691001D02*
X99169001Y-88282999D01*
X106934000Y-32766000D02*
X106934000Y-34415590D01*
X100641989Y-40707600D02*
X100641989Y-73602011D01*
X98843999Y-88608001D02*
X98044000Y-89408000D01*
X95758000Y-81280000D02*
X99169001Y-84691001D01*
X99169001Y-88282999D02*
X98843999Y-88608001D01*
X100641989Y-73602011D02*
X95758000Y-78486000D01*
X95758000Y-78486000D02*
X95758000Y-81280000D01*
X106934000Y-34415590D02*
X100641989Y-40707600D01*
G04 #@! TO.N,Net-(J25-Pad4)*
X108624001Y-33615999D02*
X108370001Y-33615999D01*
X109474000Y-32766000D02*
X108624001Y-33615999D01*
X101092000Y-40894000D02*
X101092000Y-75946000D01*
X108370001Y-33615999D02*
X101092000Y-40894000D01*
G04 #@! TD*
M02*
